<svg version="1.2" xmlns="http://www.w3.org/2000/svg" xmlns:xlink="http://www.w3.org/1999/xlink" overflow="visible"
     preserveAspectRatio="none" viewBox="0 0 26 26" xml:space="preserve" height="24" width="24"><g transform="translate(1, 1)"><rect style="fill:none;" height="24" width="24" y="0" x="0" vector-effect="non-scaling-stroke"/><path
        style="fill:#000;"
        d="M12,11.081l4.477,-4.477c0.253,-0.254 0.665,-0.254 0.919,0c0.254,0.254 0.254,0.666 0,0.919l-4.477,4.477l4.477,4.477c0.254,0.253 0.254,0.665 0,0.919c-0.254,0.254 -0.666,0.254 -0.919,0l-4.477,-4.477l-4.477,4.477c-0.253,0.254 -0.665,0.254 -0.919,0c-0.254,-0.254 -0.254,-0.666 0,-0.919l4.477,-4.477l-4.477,-4.477c-0.254,-0.253 -0.254,-0.665 0,-0.919c0.254,-0.254 0.666,-0.254 0.919,0l4.477,4.477Z"
        id="close1_1572598548830" vector-effect="non-scaling-stroke"/></g></svg>