<svg version="1.2" xmlns="http://www.w3.org/2000/svg" xmlns:xlink="http://www.w3.org/1999/xlink" overflow="visible" preserveAspectRatio="none" viewBox="0 0 26 26" xml:space="preserve" height="24" width="24"><g transform="translate(1, 1)"><rect style="fill:none;" height="24" width="24" y="0" x="0" id="ico_plus_1572861732273" vector-effect="non-scaling-stroke"/><path style="fill:#212121;" d="M11.35,11.35l0,-6.7c0,-0.359 0.291,-0.65 0.65,-0.65c0.359,0 0.65,0.291 0.65,0.65l0,6.7l6.7,0c0.359,0 0.65,0.291 0.65,0.65c0,0.359 -0.291,0.65 -0.65,0.65l-6.7,0l0,6.7c0,0.359 -0.291,0.65 -0.65,0.65c-0.359,0 -0.65,-0.291 -0.65,-0.65l0,-6.7l-6.7,0c-0.359,0 -0.65,-0.291 -0.65,-0.65c0,-0.359 0.291,-0.65 0.65,-0.65l6.7,0Z" id="ico_plus1_1572861732273" vector-effect="non-scaling-stroke"/></g></svg>