<svg version="1.2" xmlns="http://www.w3.org/2000/svg" xmlns:xlink="http://www.w3.org/1999/xlink" overflow="visible"
     preserveAspectRatio="none" viewBox="0 0 26 26" xml:space="preserve" height="24" width="24"><g transform="translate(1, 1)"><rect style="fill:none;" height="24" width="24" y="0" x="0" id="back_1571994772102" vector-effect="non-scaling-stroke"/><path
        style="fill:#323232;fill-rule:nonzero;"
        d="M6.278,12.64l4.054,4.041c0.113,0.118 0.181,0.268 0.197,0.429c0.001,0.025 0.002,0.05 0.001,0.075c-0.019,0.449 -0.511,0.746 -0.904,0.606c-0.089,-0.032 -0.139,-0.054 -0.249,-0.158l-5.181,-5.163c-0.026,-0.027 -0.051,-0.055 -0.072,-0.085c-0.044,-0.06 -0.077,-0.128 -0.098,-0.199c-0.043,-0.142 -0.03,-0.281 0.019,-0.404c0.029,-0.097 0.079,-0.188 0.151,-0.264l5.181,-5.163c0.024,-0.023 0.029,-0.029 0.055,-0.05c0.41,-0.326 1.063,0.001 1.098,0.498c0.002,0.193 -0.069,0.368 -0.198,0.504l-4.066,4.053l13.099,0c0.02,0.001 0.039,0.002 0.059,0.003c0.422,0.058 0.708,0.533 0.514,0.922c-0.088,0.177 -0.261,0.308 -0.455,0.344c-0.052,0.01 -0.066,0.009 -0.118,0.011l-13.087,0Z"
        id="back1_1571994772102" vector-effect="non-scaling-stroke"/></g></svg>