<svg version="1.2" xmlns="http://www.w3.org/2000/svg" xmlns:xlink="http://www.w3.org/1999/xlink" overflow="visible"
     preserveAspectRatio="none" viewBox="0 0 802 602" xml:space="preserve" height="600" width="800"><g transform="translate(1, 1)"><rect style="fill:#fff;" height="600" width="800" y="0" x="0" vector-effect="non-scaling-stroke"/><path
        style="fill:#f5f5f5;fill-rule:nonzero;"
        d="M14.029,370.771c-1.388,0 -2.549,-1.129 -2.549,-2.517c0,-1.388 1.161,-2.485 2.549,-2.485c1.388,0 2.517,1.097 2.517,2.485c0,1.388 -1.129,2.517 -2.517,2.517Zm18.396,-0.484c-1.13,0 -2.033,-0.903 -2.033,-2.033c0,-1.065 0.903,-1.968 2.033,-1.968c1.065,0 1.936,0.903 1.936,1.968c0,1.13 -0.871,2.033 -1.936,2.033Zm18.395,-0.71c-0.742,0 -1.323,-0.548 -1.323,-1.323c0,-0.71 0.581,-1.323 1.323,-1.323c0.71,0 1.323,0.613 1.323,1.323c0,0.775 -0.613,1.323 -1.323,1.323Zm18.396,-0.613c-0.355,0 -0.678,-0.323 -0.678,-0.71c0,-0.355 0.323,-0.613 0.678,-0.613c0.323,0 0.645,0.258 0.645,0.613c0,0.387 -0.322,0.71 -0.645,0.71Zm18.363,-0.193c-0.258,0 -0.516,-0.194 -0.516,-0.517c0,-0.258 0.258,-0.484 0.516,-0.484c0.323,0 0.484,0.226 0.484,0.484c0,0.323 -0.161,0.517 -0.484,0.517Zm73.615,-0.194c-0.194,0 -0.323,-0.129 -0.323,-0.323c0,-0.161 0.129,-0.29 0.323,-0.29c0.129,0 0.258,0.129 0.258,0.29c0,0.194 -0.129,0.323 -0.258,0.323Zm-36.824,-0.097c-0.097,0 -0.161,-0.097 -0.161,-0.226c0,-0.097 0.064,-0.193 0.161,-0.193c0.129,0 0.194,0.096 0.194,0.193c0,0.129 -0.065,0.226 -0.194,0.226Zm18.428,0c-0.129,0 -0.258,-0.097 -0.258,-0.226c0,-0.097 0.129,-0.193 0.258,-0.193c0.129,0 0.194,0.096 0.194,0.193c0,0.129 -0.065,0.226 -0.194,0.226Zm-36.823,0c-0.129,0 -0.194,-0.097 -0.194,-0.226c0,-0.097 0.065,-0.193 0.194,-0.193c0.129,0 0.193,0.096 0.193,0.193c0,0.129 -0.064,0.226 -0.193,0.226Zm-91.946,-15.168c-1.904,0 -3.421,-1.582 -3.421,-3.453c0,-1.872 1.517,-3.421 3.421,-3.421c1.872,0 3.389,1.549 3.389,3.421c0,1.871 -1.517,3.453 -3.389,3.453Zm18.396,-0.872c-1.453,0 -2.582,-1.129 -2.582,-2.581c0,-1.388 1.129,-2.518 2.582,-2.518c1.387,0 2.517,1.13 2.517,2.518c0,1.452 -1.13,2.581 -2.517,2.581Zm18.395,-0.58c-1.129,0 -2.001,-0.872 -2.001,-2.001c0,-1.065 0.872,-1.969 2.001,-1.969c1.065,0 1.969,0.904 1.969,1.969c0,1.129 -0.904,2.001 -1.969,2.001Zm18.396,-0.872c-0.613,0 -1.13,-0.516 -1.13,-1.129c0,-0.614 0.517,-1.098 1.13,-1.098c0.581,0 1.097,0.484 1.097,1.098c0,0.613 -0.516,1.129 -1.097,1.129Zm36.759,-0.129c-0.484,0 -0.936,-0.452 -0.936,-1c0,-0.517 0.452,-0.936 0.936,-0.936c0.581,0 0.936,0.419 0.936,0.936c0,0.548 -0.355,1 -0.936,1Zm-18.396,-0.064c-0.516,0 -0.871,-0.42 -0.871,-0.936c0,-0.517 0.355,-0.904 0.871,-0.904c0.484,0 0.936,0.387 0.936,0.904c0,0.516 -0.452,0.936 -0.936,0.936Zm36.791,-0.678c-0.097,0 -0.161,-0.129 -0.161,-0.258c0,-0.097 0.064,-0.194 0.161,-0.194c0.129,0 0.194,0.097 0.194,0.194c0,0.129 -0.065,0.258 -0.194,0.258Zm36.824,-0.194c-0.065,0 -0.065,0 -0.065,-0.064c0,0 0,-0.033 0.065,-0.033l0,0.097Zm-18.396,0c-0.065,0 -0.065,0 -0.065,-0.064c0,0 0,-0.033 0.065,-0.033l0.065,0.033c0,0.064 -0.065,0.064 -0.065,0.064Zm-128.769,-12.36c-3.356,0 -6.067,-2.711 -6.067,-6.068c0,-3.356 2.711,-6.099 6.067,-6.099c3.324,0 6.035,2.743 6.035,6.099c0,3.357 -2.711,6.068 -6.035,6.068Zm18.396,-0.129c-3.292,0 -6.003,-2.647 -6.003,-5.939c0,-3.324 2.711,-5.97 6.003,-5.97c3.259,0 5.906,2.646 5.906,5.97c0,3.292 -2.647,5.939 -5.906,5.939Zm18.395,-2.163c-2.065,0 -3.776,-1.678 -3.776,-3.776c0,-2.097 1.711,-3.776 3.776,-3.776c2.098,0 3.776,1.679 3.776,3.776c0,2.098 -1.678,3.776 -3.776,3.776Zm36.759,-0.161c-1.969,0 -3.582,-1.614 -3.582,-3.615c0,-2.001 1.613,-3.646 3.582,-3.646c2.001,0 3.647,1.645 3.647,3.646c0,2.001 -1.646,3.615 -3.647,3.615Zm-18.363,-0.194c-1.872,0 -3.453,-1.549 -3.453,-3.421c0,-1.871 1.581,-3.421 3.453,-3.421c1.839,0 3.421,1.55 3.421,3.421c0,1.872 -1.582,3.421 -3.421,3.421Zm36.759,-2.904c-0.259,0 -0.484,-0.258 -0.484,-0.517c0,-0.29 0.225,-0.516 0.484,-0.516c0.258,0 0.516,0.226 0.516,0.516c0,0.259 -0.258,0.517 -0.516,0.517Zm18.395,-0.323c-0.097,0 -0.161,-0.129 -0.161,-0.194c0,-0.096 0.064,-0.193 0.161,-0.193c0.129,0 0.194,0.097 0.194,0.193c0,0.065 -0.065,0.194 -0.194,0.194Zm36.824,-0.161c-0.065,0 -0.065,-0.033 -0.065,-0.033c0,-0.032 0,-0.032 0.065,-0.032l0,0.065Zm-18.396,0c-0.065,0 -0.065,-0.033 -0.065,-0.033c0,-0.032 0,-0.032 0.065,-0.032c0,0 0.065,0 0.065,0.032l-0.065,0.033Zm-128.769,-11.941c-3.614,0 -6.584,-2.905 -6.584,-6.487c0,-3.615 2.97,-6.552 6.584,-6.552c3.582,0 6.552,2.937 6.552,6.552c0,3.582 -2.97,6.487 -6.552,6.487Zm36.791,0c-3.647,0 -6.551,-2.905 -6.551,-6.487c0,-3.615 2.904,-6.552 6.551,-6.552c3.615,0 6.487,2.937 6.487,6.552c0,3.582 -2.872,6.487 -6.487,6.487Zm-18.395,-0.033c-3.583,0 -6.487,-2.872 -6.487,-6.454c0,-3.582 2.904,-6.487 6.487,-6.487c3.582,0 6.487,2.905 6.487,6.487c0,3.582 -2.905,6.454 -6.487,6.454Zm36.791,-1.291c-2.872,0 -5.228,-2.291 -5.228,-5.163c0,-2.905 2.356,-5.228 5.228,-5.228c2.84,0 5.196,2.323 5.196,5.228c0,2.872 -2.356,5.163 -5.196,5.163Zm18.363,-0.322c-2.646,0 -4.809,-2.195 -4.809,-4.841c0,-2.679 2.163,-4.841 4.809,-4.841c2.711,0 4.841,2.162 4.841,4.841c0,2.646 -2.13,4.841 -4.841,4.841Zm18.396,-3.163c-0.936,0 -1.711,-0.775 -1.711,-1.678c0,-0.936 0.775,-1.711 1.711,-1.711c0.936,0 1.71,0.775 1.71,1.711c0,0.903 -0.774,1.678 -1.71,1.678Zm18.395,-1.485c-0.097,0 -0.161,-0.096 -0.161,-0.193c0,-0.129 0.064,-0.226 0.161,-0.226c0.129,0 0.194,0.097 0.194,0.226c0,0.097 -0.065,0.193 -0.194,0.193Zm36.824,-0.161c-0.065,0 -0.065,-0.032 -0.065,-0.032c0,-0.065 0,-0.065 0.065,-0.065l0,0.097Zm-18.396,0c-0.065,0 -0.065,-0.032 -0.065,-0.032c0,-0.065 0,-0.065 0.065,-0.065c0,0 0.065,0 0.065,0.065l-0.065,0.032Zm-73.582,-11.328c-3.97,0 -7.1,-3.195 -7.1,-7.1c0,-3.905 3.13,-7.1 7.1,-7.1c3.937,0 7.068,3.195 7.068,7.1c0,3.905 -3.131,7.1 -7.068,7.1Zm-18.396,-0.29c-3.776,0 -6.874,-3.034 -6.874,-6.81c0,-3.776 3.098,-6.842 6.874,-6.842c3.776,0 6.81,3.066 6.81,6.842c0,3.776 -3.034,6.81 -6.81,6.81Zm-18.395,-0.775c-3.357,0 -6.068,-2.711 -6.068,-6.035c0,-3.356 2.711,-6.067 6.068,-6.067c3.324,0 6.035,2.711 6.035,6.067c0,3.324 -2.711,6.035 -6.035,6.035Zm-18.396,-0.807c-2.904,0 -5.26,-2.323 -5.26,-5.228c0,-2.904 2.356,-5.26 5.26,-5.26c2.872,0 5.228,2.356 5.228,5.26c0,2.905 -2.356,5.228 -5.228,5.228Zm73.55,-3.227c-1.129,0 -2.033,-0.871 -2.033,-2.001c0,-1.129 0.904,-2.065 2.033,-2.065c1.13,0 2.066,0.936 2.066,2.065c0,1.13 -0.936,2.001 -2.066,2.001Zm73.615,-1.678c-0.194,0 -0.323,-0.129 -0.323,-0.323c0,-0.193 0.129,-0.322 0.323,-0.322c0.129,0 0.258,0.129 0.258,0.322c0,0.194 -0.129,0.323 -0.258,0.323Zm-36.824,-0.065c-0.097,0 -0.226,-0.129 -0.226,-0.258c0,-0.129 0.129,-0.258 0.226,-0.258c0.129,0 0.258,0.129 0.258,0.258c0,0.129 -0.129,0.258 -0.258,0.258Zm-18.395,-0.064c-0.129,0 -0.194,-0.065 -0.194,-0.194c0,-0.129 0.065,-0.193 0.194,-0.193c0.129,0 0.193,0.064 0.193,0.193c0,0.129 -0.064,0.194 -0.193,0.194Zm36.823,-0.032c-0.129,0 -0.194,-0.097 -0.194,-0.162c0,-0.097 0.065,-0.161 0.194,-0.161c0.065,0 0.129,0.064 0.129,0.161c0,0.065 -0.064,0.162 -0.129,0.162Zm-73.582,-11.07c-4.131,0 -7.487,-3.356 -7.487,-7.487c0,-4.131 3.356,-7.52 7.487,-7.52c4.098,0 7.455,3.389 7.455,7.52c0,4.131 -3.357,7.487 -7.455,7.487Zm-18.396,-0.516c-3.905,0 -7.003,-3.099 -7.003,-6.971c0,-3.873 3.098,-7.003 7.003,-7.003c3.841,0 7.003,3.13 7.003,7.003c0,3.872 -3.162,6.971 -7.003,6.971Zm-18.395,-0.549c-3.55,0 -6.423,-2.872 -6.423,-6.422c0,-3.55 2.873,-6.455 6.423,-6.455c3.517,0 6.422,2.905 6.422,6.455c0,3.55 -2.905,6.422 -6.422,6.422Zm55.154,-0.516c-3.292,0 -5.938,-2.647 -5.938,-5.906c0,-3.292 2.646,-5.906 5.938,-5.906c3.26,0 5.906,2.614 5.906,5.906c0,3.259 -2.646,5.906 -5.906,5.906Zm-73.55,-0.065c-3.227,0 -5.874,-2.614 -5.874,-5.841c0,-3.228 2.647,-5.874 5.874,-5.874c3.195,0 5.842,2.646 5.842,5.874c0,3.227 -2.647,5.841 -5.842,5.841Zm91.946,-1.065c-2.647,0 -4.777,-2.13 -4.777,-4.776c0,-2.647 2.13,-4.809 4.777,-4.809c2.646,0 4.808,2.162 4.808,4.809c0,2.646 -2.162,4.776 -4.808,4.776Zm18.395,-1.129c-2.001,0 -3.647,-1.614 -3.647,-3.647c0,-2.033 1.646,-3.679 3.647,-3.679c2.033,0 3.679,1.646 3.679,3.679c0,2.033 -1.646,3.647 -3.679,3.647Zm18.428,-3.163c-0.323,0 -0.516,-0.194 -0.516,-0.484c0,-0.258 0.193,-0.517 0.516,-0.517c0.258,0 0.484,0.259 0.484,0.517c0,0.29 -0.226,0.484 -0.484,0.484Zm18.396,-0.032c-0.323,0 -0.517,-0.226 -0.517,-0.452c0,-0.258 0.194,-0.452 0.517,-0.452c0.193,0 0.451,0.194 0.451,0.452c0,0.226 -0.258,0.452 -0.451,0.452Zm-73.615,-10.909c-4.357,0 -7.939,-3.55 -7.939,-7.971c0,-4.357 3.582,-7.939 7.939,-7.939c4.421,0 7.939,3.582 7.939,7.939c0,4.421 -3.518,7.971 -7.939,7.971Zm36.791,-0.032c-4.324,0 -7.939,-3.518 -7.939,-7.939c0,-4.357 3.615,-7.875 7.939,-7.875c4.357,0 7.907,3.518 7.907,7.875c0,4.421 -3.55,7.939 -7.907,7.939Zm-18.395,0c-4.357,0 -7.875,-3.518 -7.875,-7.939c0,-4.357 3.518,-7.875 7.875,-7.875c4.356,0 7.874,3.518 7.874,7.875c0,4.421 -3.518,7.939 -7.874,7.939Zm-36.759,-0.419c-4.131,0 -7.487,-3.357 -7.487,-7.52c0,-4.131 3.356,-7.455 7.487,-7.455c4.098,0 7.455,3.324 7.455,7.455c0,4.163 -3.357,7.52 -7.455,7.52Zm-18.396,-0.517c-3.905,0 -7.003,-3.13 -7.003,-7.003c0,-3.841 3.098,-6.971 7.003,-6.971c3.841,0 7.003,3.13 7.003,6.971c0,3.873 -3.162,7.003 -7.003,7.003Zm-18.395,-0.064c-3.841,0 -6.939,-3.099 -6.939,-6.939c0,-3.808 3.098,-6.939 6.939,-6.939c3.84,0 6.938,3.131 6.938,6.939c0,3.84 -3.098,6.939 -6.938,6.939Zm-18.396,-0.517c-3.55,0 -6.454,-2.808 -6.454,-6.422c0,-3.518 2.904,-6.39 6.454,-6.39c3.518,0 6.422,2.872 6.422,6.39c0,3.614 -2.904,6.422 -6.422,6.422Zm128.769,-4.066c-1.323,0 -2.324,-1.033 -2.324,-2.356c0,-1.259 1.001,-2.324 2.324,-2.324c1.259,0 2.324,1.065 2.324,2.324c0,1.323 -1.065,2.356 -2.324,2.356Zm-55.219,-13.716c-3.84,0 -7.003,-3.131 -7.003,-7.003c0,-3.873 3.163,-6.971 7.003,-6.971c3.905,0 7.003,3.098 7.003,6.971c0,3.872 -3.098,7.003 -7.003,7.003Zm36.791,0c-3.84,0 -6.971,-3.131 -6.971,-7.003c0,-3.873 3.131,-6.971 6.971,-6.971c3.873,0 7.003,3.098 7.003,6.971c0,3.872 -3.13,7.003 -7.003,7.003Zm-18.395,-0.355c-3.647,0 -6.616,-2.969 -6.616,-6.648c0,-3.647 2.969,-6.616 6.616,-6.616c3.646,0 6.616,2.969 6.616,6.616c0,3.679 -2.97,6.648 -6.616,6.648Zm-91.946,-0.484c-3.421,0 -6.196,-2.743 -6.196,-6.164c0,-3.421 2.775,-6.164 6.196,-6.164c3.389,0 6.164,2.743 6.164,6.164c0,3.421 -2.775,6.164 -6.164,6.164Zm36.791,0c-3.388,0 -6.164,-2.743 -6.164,-6.164c0,-3.421 2.776,-6.164 6.164,-6.164c3.421,0 6.197,2.743 6.197,6.164c0,3.421 -2.776,6.164 -6.197,6.164Zm-18.395,0c-3.421,0 -6.197,-2.743 -6.197,-6.164c0,-3.421 2.776,-6.164 6.197,-6.164c3.388,0 6.164,2.743 6.164,6.164c0,3.421 -2.776,6.164 -6.164,6.164Zm36.791,0c-3.453,0 -6.164,-2.743 -6.164,-6.164c0,-3.421 2.711,-6.164 6.164,-6.164c3.356,0 6.132,2.743 6.132,6.164c0,3.421 -2.776,6.164 -6.132,6.164Zm73.582,-0.904c-2.905,0 -5.293,-2.356 -5.293,-5.26c0,-2.905 2.388,-5.261 5.293,-5.261c2.905,0 5.228,2.356 5.228,5.261c0,2.904 -2.323,5.26 -5.228,5.26Zm-73.582,-15.781c-4.325,0 -7.875,-3.518 -7.875,-7.843c0,-4.356 3.55,-7.906 7.875,-7.906c4.292,0 7.842,3.55 7.842,7.906c0,4.325 -3.55,7.843 -7.842,7.843Zm18.363,-0.613c-4.034,0 -7.261,-3.196 -7.261,-7.23c0,-4.034 3.227,-7.326 7.261,-7.326c4.034,0 7.294,3.292 7.294,7.326c0,4.034 -3.26,7.23 -7.294,7.23Zm36.791,-0.388c-3.776,0 -6.842,-3.066 -6.842,-6.842c0,-3.84 3.066,-6.906 6.842,-6.906c3.808,0 6.874,3.066 6.874,6.906c0,3.776 -3.066,6.842 -6.874,6.842Zm-73.55,-0.613c-3.453,0 -6.293,-2.775 -6.293,-6.229c0,-3.485 2.84,-6.325 6.293,-6.325c3.486,0 6.261,2.84 6.261,6.325c0,3.454 -2.775,6.229 -6.261,6.229Zm55.155,-0.452c-3.195,0 -5.809,-2.582 -5.809,-5.777c0,-3.227 2.614,-5.841 5.809,-5.841c3.227,0 5.809,2.614 5.809,5.841c0,3.195 -2.582,5.777 -5.809,5.777Zm-73.55,-0.387c-3.034,0 -5.422,-2.453 -5.422,-5.39c0,-3.033 2.388,-5.421 5.422,-5.421c2.969,0 5.422,2.388 5.422,5.421c0,2.937 -2.453,5.39 -5.422,5.39Zm110.373,-0.613c-2.646,0 -4.809,-2.13 -4.809,-4.777c0,-2.646 2.163,-4.808 4.809,-4.808c2.646,0 4.776,2.162 4.776,4.808c0,2.647 -2.13,4.777 -4.776,4.777Zm-128.769,-0.065c-2.614,0 -4.744,-2.13 -4.744,-4.712c0,-2.646 2.13,-4.776 4.744,-4.776c2.647,0 4.712,2.13 4.712,4.776c0,2.582 -2.065,4.712 -4.712,4.712Zm147.165,-4.486c-0.194,0 -0.323,-0.129 -0.323,-0.226c0,-0.161 0.129,-0.258 0.323,-0.258c0.129,0 0.193,0.097 0.193,0.258c0,0.097 -0.064,0.226 -0.193,0.226Zm-55.219,-10.456c-4.519,0 -8.198,-3.647 -8.198,-8.197c0,-4.519 3.679,-8.198 8.198,-8.198c4.55,0 8.197,3.679 8.197,8.198c0,4.55 -3.647,8.197 -8.197,8.197Zm-18.396,-0.904c-4.034,0 -7.261,-3.259 -7.261,-7.293c0,-4.035 3.227,-7.294 7.261,-7.294c4.034,0 7.294,3.259 7.294,7.294c0,4.034 -3.26,7.293 -7.294,7.293Zm36.791,-1c-3.453,0 -6.293,-2.808 -6.293,-6.293c0,-3.454 2.84,-6.261 6.293,-6.261c3.486,0 6.261,2.807 6.261,6.261c0,3.485 -2.775,6.293 -6.261,6.293Zm-110.341,-0.258c-3.356,0 -6.003,-2.679 -6.003,-6.035c0,-3.325 2.647,-6.003 6.003,-6.003c3.324,0 5.971,2.678 5.971,6.003c0,3.356 -2.647,6.035 -5.971,6.035Zm18.396,-0.162c-3.228,0 -5.874,-2.646 -5.874,-5.873c0,-3.228 2.646,-5.842 5.874,-5.842c3.195,0 5.873,2.614 5.873,5.842c0,3.227 -2.678,5.873 -5.873,5.873Zm18.395,-0.452c-3.033,0 -5.422,-2.452 -5.422,-5.421c0,-2.97 2.389,-5.422 5.422,-5.422c2.969,0 5.358,2.452 5.358,5.422c0,2.969 -2.389,5.421 -5.358,5.421Zm18.396,-0.613c-2.679,0 -4.841,-2.162 -4.841,-4.808c0,-2.647 2.162,-4.777 4.841,-4.777c2.614,0 4.808,2.13 4.808,4.777c0,2.646 -2.194,4.808 -4.808,4.808Zm73.582,-4.131c-0.387,0 -0.71,-0.29 -0.71,-0.677c0,-0.355 0.323,-0.646 0.71,-0.646c0.323,0 0.613,0.291 0.613,0.646c0,0.387 -0.29,0.677 -0.613,0.677Zm18.396,-0.161c-0.323,0 -0.549,-0.226 -0.549,-0.516c0,-0.259 0.226,-0.485 0.549,-0.485c0.258,0 0.516,0.226 0.516,0.485c0,0.29 -0.258,0.516 -0.516,0.516Zm-128.769,-13.361c-3.099,0 -5.551,-2.453 -5.551,-5.551c0,-3.066 2.452,-5.551 5.551,-5.551c3.098,0 5.551,2.485 5.551,5.551c0,3.098 -2.453,5.551 -5.551,5.551Zm36.791,-0.29c-2.937,0 -5.293,-2.356 -5.293,-5.261c0,-2.905 2.356,-5.228 5.293,-5.228c2.904,0 5.26,2.323 5.26,5.228c0,2.905 -2.356,5.261 -5.26,5.261Zm-18.396,-0.259c-2.775,0 -5.034,-2.227 -5.034,-5.002c0,-2.743 2.259,-4.97 5.034,-4.97c2.711,0 4.97,2.227 4.97,4.97c0,2.775 -2.259,5.002 -4.97,5.002Zm-36.791,-0.226c-2.646,0 -4.808,-2.13 -4.808,-4.776c0,-2.646 2.162,-4.776 4.808,-4.776c2.647,0 4.777,2.13 4.777,4.776c0,2.646 -2.13,4.776 -4.777,4.776Zm73.55,-0.839c-2.162,0 -3.905,-1.775 -3.905,-3.937c0,-2.13 1.743,-3.905 3.905,-3.905c2.195,0 3.97,1.775 3.97,3.905c0,2.162 -1.775,3.937 -3.97,3.937Zm18.396,-0.613c-1.808,0 -3.324,-1.484 -3.324,-3.324c0,-1.84 1.516,-3.324 3.324,-3.324c1.839,0 3.356,1.484 3.356,3.324c0,1.84 -1.517,3.324 -3.356,3.324Zm18.395,-0.226c-1.678,0 -3.066,-1.387 -3.066,-3.098c0,-1.71 1.388,-3.066 3.066,-3.066c1.711,0 3.034,1.356 3.034,3.066c0,1.711 -1.323,3.098 -3.034,3.098Zm36.824,-0.323c-1.582,0 -2.776,-1.258 -2.776,-2.775c0,-1.517 1.194,-2.743 2.776,-2.743c1.516,0 2.71,1.226 2.71,2.743c0,1.517 -1.194,2.775 -2.71,2.775Zm-18.396,-1.194c-0.904,0 -1.581,-0.71 -1.581,-1.581c0,-0.871 0.677,-1.581 1.581,-1.581c0.871,0 1.581,0.71 1.581,1.581c0,0.871 -0.71,1.581 -1.581,1.581Zm-110.373,-14.071c-3.292,0 -5.939,-2.646 -5.939,-5.906c0,-3.259 2.647,-5.906 5.939,-5.906c3.259,0 5.906,2.647 5.906,5.906c0,3.26 -2.647,5.906 -5.906,5.906Zm-18.396,-0.903c-2.775,0 -5.002,-2.227 -5.002,-5.003c0,-2.743 2.227,-5.002 5.002,-5.002c2.743,0 4.97,2.259 4.97,5.002c0,2.776 -2.227,5.003 -4.97,5.003Zm36.791,-0.549c-2.453,0 -4.453,-2.001 -4.453,-4.454c0,-2.452 2,-4.421 4.453,-4.421c2.453,0 4.422,1.969 4.422,4.421c0,2.453 -1.969,4.454 -4.422,4.454Zm36.759,-0.194c-2.324,0 -4.292,-1.871 -4.292,-4.26c0,-2.355 1.968,-4.26 4.292,-4.26c2.388,0 4.292,1.905 4.292,4.26c0,2.389 -1.904,4.26 -4.292,4.26Zm18.396,-0.677c-1.937,0 -3.518,-1.582 -3.518,-3.583c0,-1.968 1.581,-3.582 3.518,-3.582c1.968,0 3.582,1.614 3.582,3.582c0,2.001 -1.614,3.583 -3.582,3.583Zm-36.759,0c-2.001,0 -3.583,-1.582 -3.583,-3.583c0,-1.968 1.582,-3.582 3.583,-3.582c1.968,0 3.55,1.614 3.55,3.582c0,2.001 -1.582,3.583 -3.55,3.583Zm73.582,-0.742c-1.581,0 -2.84,-1.291 -2.84,-2.841c0,-1.516 1.259,-2.775 2.84,-2.775c1.517,0 2.775,1.259 2.775,2.775c0,1.55 -1.258,2.841 -2.775,2.841Zm-18.428,-0.84c-1.129,0 -2.001,-0.871 -2.001,-2.001c0,-1.097 0.872,-1.968 2.001,-1.968c1.097,0 1.969,0.871 1.969,1.968c0,1.13 -0.872,2.001 -1.969,2.001Zm36.824,-1.807c-0.13,0 -0.194,-0.064 -0.194,-0.194c0,-0.064 0.064,-0.129 0.194,-0.129c0.064,0 0.129,0.065 0.129,0.129c0,0.13 -0.065,0.194 -0.129,0.194Zm-128.769,-12.134c-3.55,0 -6.423,-2.873 -6.423,-6.455c0,-3.55 2.873,-6.422 6.423,-6.422c3.517,0 6.422,2.872 6.422,6.422c0,3.582 -2.905,6.455 -6.422,6.455Zm18.395,-1.646c-2.646,0 -4.776,-2.163 -4.776,-4.809c0,-2.646 2.13,-4.776 4.776,-4.776c2.647,0 4.809,2.13 4.809,4.776c0,2.646 -2.162,4.809 -4.809,4.809Zm-36.791,-0.226c-2.549,0 -4.615,-2.034 -4.615,-4.583c0,-2.55 2.066,-4.551 4.615,-4.551c2.517,0 4.583,2.001 4.583,4.551c0,2.549 -2.066,4.583 -4.583,4.583Zm110.341,-0.71c-2.13,0 -3.905,-1.711 -3.905,-3.873c0,-2.13 1.775,-3.873 3.905,-3.873c2.162,0 3.873,1.743 3.873,3.873c0,2.162 -1.711,3.873 -3.873,3.873Zm-55.154,-0.614c-1.807,0 -3.26,-1.452 -3.26,-3.259c0,-1.775 1.453,-3.227 3.26,-3.227c1.775,0 3.227,1.452 3.227,3.227c0,1.807 -1.452,3.259 -3.227,3.259Zm36.759,-0.451c-1.517,0 -2.776,-1.259 -2.776,-2.808c0,-1.549 1.259,-2.808 2.776,-2.808c1.581,0 2.84,1.259 2.84,2.808c0,1.549 -1.259,2.808 -2.84,2.808Zm-18.396,-0.549c-1.194,0 -2.227,-1.033 -2.227,-2.259c0,-1.226 1.033,-2.227 2.227,-2.227c1.259,0 2.259,1.001 2.259,2.227c0,1.226 -1,2.259 -2.259,2.259Zm55.219,-2.227c-0.065,0 -0.065,0 -0.065,-0.032c0,-0.032 0,-0.032 0.065,-0.032c0,0 0.065,0 0.065,0.032c0,0.032 -0.065,0.032 -0.065,0.032Zm18.396,0c-0.065,0 -0.065,0 -0.065,-0.032c0,-0.032 0,-0.032 0.065,-0.032l0,0.064Zm-147.165,-14.426c-2.227,0 -3.969,-1.807 -3.969,-3.969c0,-2.195 1.742,-4.002 3.969,-4.002c2.195,0 3.97,1.807 3.97,4.002c0,2.162 -1.775,3.969 -3.97,3.969Zm73.55,-1.194c-1.517,0 -2.775,-1.259 -2.775,-2.775c0,-1.582 1.258,-2.84 2.775,-2.84c1.581,0 2.84,1.258 2.84,2.84c0,1.516 -1.259,2.775 -2.84,2.775Zm-18.363,-0.387c-1.356,0 -2.388,-1.065 -2.388,-2.388c0,-1.324 1.032,-2.389 2.388,-2.389c1.355,0 2.42,1.065 2.42,2.389c0,1.323 -1.065,2.388 -2.42,2.388Zm-36.791,-0.065c-1.323,0 -2.324,-1.065 -2.324,-2.323c0,-1.324 1.001,-2.356 2.324,-2.356c1.258,0 2.323,1.032 2.323,2.356c0,1.258 -1.065,2.323 -2.323,2.323Zm73.55,-0.097c-1.259,0 -2.259,-1 -2.259,-2.226c0,-1.259 1,-2.259 2.259,-2.259c1.258,0 2.259,1 2.259,2.259c0,1.226 -1.001,2.226 -2.259,2.226Zm-55.155,-0.387c-1,0 -1.807,-0.839 -1.807,-1.839c0,-1.033 0.807,-1.872 1.807,-1.872c1.001,0 1.84,0.839 1.84,1.872c0,1 -0.839,1.839 -1.84,1.839Zm110.374,-1.323c-0.323,0 -0.549,-0.258 -0.549,-0.516c0,-0.323 0.226,-0.517 0.549,-0.517c0.258,0 0.516,0.194 0.516,0.517c0,0.258 -0.258,0.516 -0.516,0.516Zm-18.396,-0.226c-0.194,0 -0.323,-0.129 -0.323,-0.29c0,-0.194 0.129,-0.323 0.323,-0.323c0.129,0 0.323,0.129 0.323,0.323c0,0.161 -0.194,0.29 -0.323,0.29Zm-18.428,-0.258l-0.032,-0.032c0,-0.065 0.032,-0.065 0.032,-0.065c0,0 0.065,0 0.065,0.065l-0.065,0.032Zm-55.154,-16.04c-1.356,0 -2.388,-1.065 -2.388,-2.388c0,-1.323 1.032,-2.42 2.388,-2.42c1.355,0 2.42,1.097 2.42,2.42c0,1.323 -1.065,2.388 -2.42,2.388Zm-18.396,-0.097c-1.258,0 -2.323,-1.032 -2.323,-2.291c0,-1.259 1.065,-2.324 2.323,-2.324c1.259,0 2.259,1.065 2.259,2.324c0,1.259 -1,2.291 -2.259,2.291Zm-36.791,-0.484c-1.033,0 -1.839,-0.806 -1.839,-1.807c0,-1.033 0.806,-1.839 1.839,-1.839c1.001,0 1.807,0.806 1.807,1.839c0,1.001 -0.806,1.807 -1.807,1.807Zm18.396,-0.419c-0.775,0 -1.388,-0.646 -1.388,-1.388c0,-0.774 0.613,-1.388 1.388,-1.388c0.742,0 1.387,0.614 1.387,1.388c0,0.742 -0.645,1.388 -1.387,1.388Zm110.373,-0.194c-0.71,0 -1.259,-0.548 -1.259,-1.194c0,-0.71 0.549,-1.226 1.259,-1.226c0.613,0 1.194,0.516 1.194,1.226c0,0.646 -0.581,1.194 -1.194,1.194Zm-18.428,-0.903c-0.161,0 -0.29,-0.097 -0.29,-0.291c0,-0.194 0.129,-0.323 0.29,-0.323c0.194,0 0.323,0.129 0.323,0.323c0,0.194 -0.129,0.291 -0.323,0.291Zm-36.791,-0.097c-0.064,0 -0.194,-0.065 -0.194,-0.194c0,-0.129 0.13,-0.194 0.194,-0.194c0.129,0 0.194,0.065 0.194,0.194c0,0.129 -0.065,0.194 -0.194,0.194Zm18.396,-0.129l-0.065,-0.065c0,-0.032 0.065,-0.064 0.065,-0.064c0.064,0 0.064,0.032 0.064,0.064c0,0 0,0.065 -0.064,0.065Zm-91.946,-16.201c-1.291,0 -2.291,-1.033 -2.291,-2.292c0,-1.226 1,-2.227 2.291,-2.227c1.259,0 2.259,1.001 2.259,2.227c0,1.259 -1,2.292 -2.259,2.292Zm36.791,-1.775c-0.322,0 -0.484,-0.194 -0.484,-0.517c0,-0.258 0.162,-0.484 0.484,-0.484c0.258,0 0.517,0.226 0.517,0.484c0,0.323 -0.259,0.517 -0.517,0.517Zm-18.395,-0.065c-0.258,0 -0.452,-0.194 -0.452,-0.452c0,-0.226 0.194,-0.419 0.452,-0.419c0.258,0 0.452,0.193 0.452,0.419c0,0.258 -0.194,0.452 -0.452,0.452Zm73.55,-0.29c-0.065,0 -0.129,-0.065 -0.129,-0.162c0,-0.064 0.064,-0.129 0.129,-0.129c0.064,0 0.193,0.065 0.193,0.129c0,0.097 -0.129,0.162 -0.193,0.162Zm18.395,-0.097c0,0 -0.032,-0.032 -0.032,-0.065l0.032,-0.064l0.065,0.064c0,0.033 -0.065,0.065 -0.065,0.065Zm-73.55,-18.138c-0.193,0 -0.322,-0.129 -0.322,-0.322c0,-0.162 0.129,-0.291 0.322,-0.291c0.129,0 0.258,0.129 0.258,0.291c0,0.193 -0.129,0.322 -0.258,0.322Zm-18.395,-0.032c-0.129,0 -0.258,-0.129 -0.258,-0.29c0,-0.129 0.129,-0.258 0.258,-0.258c0.129,0 0.258,0.129 0.258,0.258c0,0.161 -0.129,0.29 -0.258,0.29Zm55.154,-0.064c-0.064,0 -0.194,-0.097 -0.194,-0.226c0,-0.097 0.13,-0.194 0.194,-0.194c0.129,0 0.194,0.097 0.194,0.194c0,0.129 -0.065,0.226 -0.194,0.226Zm-73.55,0c-0.129,0 -0.193,-0.097 -0.193,-0.226c0,-0.097 0.064,-0.194 0.193,-0.194c0.097,0 0.162,0.097 0.162,0.194c0,0.129 -0.065,0.226 -0.162,0.226Zm55.187,-0.162c-0.032,0 -0.032,0 -0.032,-0.064c0,0 0,-0.033 0.032,-0.033l0,0.097Zm-55.187,-18.169c-0.129,0 -0.258,-0.097 -0.258,-0.259c0,-0.161 0.129,-0.258 0.258,-0.258c0.097,0 0.226,0.097 0.226,0.258c0,0.162 -0.129,0.259 -0.226,0.259Zm55.187,-0.033c-0.097,0 -0.226,-0.129 -0.226,-0.226c0,-0.096 0.129,-0.225 0.226,-0.225c0.064,0 0.193,0.129 0.193,0.225c0,0.097 -0.129,0.226 -0.193,0.226Zm-36.791,-0.064c-0.065,0 -0.194,-0.065 -0.194,-0.162c0,-0.096 0.129,-0.161 0.194,-0.161c0.064,0 0.129,0.065 0.129,0.161c0,0.097 -0.065,0.162 -0.129,0.162Zm55.154,-0.129c0,0 -0.064,0 -0.064,-0.033c0,-0.032 0.064,-0.032 0.064,-0.032c0.065,0 0.065,0 0.065,0.032c0,0.033 0,0.033 -0.065,0.033Zm-73.55,-18.234c-0.129,0 -0.193,-0.097 -0.193,-0.194c0,-0.129 0.064,-0.194 0.193,-0.194c0.097,0 0.162,0.065 0.162,0.194c0,0.097 -0.065,0.194 -0.162,0.194Z"
        vector-effect="non-scaling-stroke"/><path style="fill:#f5f5f5;fill-rule:nonzero;"
                                                  d="M785.551,532.2c2.195,0 4.034,-1.839 4.034,-4.098c0,-2.227 -1.839,-4.067 -4.034,-4.067c-2.259,0 -4.098,1.84 -4.098,4.067c0,2.259 1.839,4.098 4.098,4.098Zm-18.395,0c2.259,0 4.034,-1.839 4.034,-4.098c0,-2.227 -1.775,-4.067 -4.034,-4.067c-2.292,0 -4.099,1.84 -4.099,4.067c0,2.259 1.807,4.098 4.099,4.098Zm-18.428,-1.581c1.388,0 2.55,-1.129 2.55,-2.517c0,-1.388 -1.162,-2.485 -2.55,-2.485c-1.388,0 -2.517,1.097 -2.517,2.485c0,1.388 1.129,2.517 2.517,2.517Zm-18.396,-0.484c1.13,0 2.034,-0.904 2.034,-2.033c0,-1.065 -0.904,-1.969 -2.034,-1.969c-1.065,0 -1.936,0.904 -1.936,1.969c0,1.129 0.871,2.033 1.936,2.033Zm-18.395,-0.71c0.742,0 1.323,-0.549 1.323,-1.323c0,-0.71 -0.581,-1.323 -1.323,-1.323c-0.71,0 -1.323,0.613 -1.323,1.323c0,0.774 0.613,1.323 1.323,1.323Zm-18.396,-0.613c0.355,0 0.678,-0.323 0.678,-0.71c0,-0.355 -0.323,-0.613 -0.678,-0.613c-0.322,0 -0.645,0.258 -0.645,0.613c0,0.387 0.323,0.71 0.645,0.71Zm-18.363,-0.194c0.258,0 0.516,-0.193 0.516,-0.516c0,-0.258 -0.258,-0.484 -0.516,-0.484c-0.323,0 -0.484,0.226 -0.484,0.484c0,0.323 0.161,0.516 0.484,0.516Zm-73.614,-0.193c0.193,0 0.322,-0.13 0.322,-0.323c0,-0.162 -0.129,-0.291 -0.322,-0.291c-0.129,0 -0.259,0.129 -0.259,0.291c0,0.193 0.13,0.323 0.259,0.323Zm36.823,-0.097c0.097,0 0.161,-0.097 0.161,-0.226c0,-0.097 -0.064,-0.194 -0.161,-0.194c-0.129,0 -0.194,0.097 -0.194,0.194c0,0.129 0.065,0.226 0.194,0.226Zm-18.428,0c0.129,0 0.258,-0.097 0.258,-0.226c0,-0.097 -0.129,-0.194 -0.258,-0.194c-0.129,0 -0.194,0.097 -0.194,0.194c0,0.129 0.065,0.226 0.194,0.226Zm36.824,0c0.129,0 0.193,-0.097 0.193,-0.226c0,-0.097 -0.064,-0.194 -0.193,-0.194c-0.13,0 -0.194,0.097 -0.194,0.194c0,0.129 0.064,0.226 0.194,0.226Zm128.768,-13.716c2.647,0 4.841,-2.195 4.841,-4.906c0,-2.678 -2.194,-4.873 -4.841,-4.873c-2.711,0 -4.905,2.195 -4.905,4.873c0,2.711 2.194,4.906 4.905,4.906Zm-18.395,-1.001c2.13,0 3.84,-1.742 3.84,-3.905c0,-2.13 -1.71,-3.84 -3.84,-3.84c-2.163,0 -3.905,1.71 -3.905,3.84c0,2.163 1.742,3.905 3.905,3.905Zm-18.428,-0.452c1.904,0 3.421,-1.581 3.421,-3.453c0,-1.872 -1.517,-3.421 -3.421,-3.421c-1.872,0 -3.389,1.549 -3.389,3.421c0,1.872 1.517,3.453 3.389,3.453Zm-18.396,-0.871c1.453,0 2.582,-1.129 2.582,-2.582c0,-1.387 -1.129,-2.517 -2.582,-2.517c-1.387,0 -2.517,1.13 -2.517,2.517c0,1.453 1.13,2.582 2.517,2.582Zm-18.395,-0.581c1.129,0 2.001,-0.871 2.001,-2.001c0,-1.065 -0.872,-1.968 -2.001,-1.968c-1.065,0 -1.969,0.903 -1.969,1.968c0,1.13 0.904,2.001 1.969,2.001Zm-18.396,-0.871c0.613,0 1.13,-0.517 1.13,-1.13c0,-0.613 -0.517,-1.097 -1.13,-1.097c-0.581,0 -1.097,0.484 -1.097,1.097c0,0.613 0.516,1.13 1.097,1.13Zm-36.758,-0.129c0.484,0 0.935,-0.452 0.935,-1.001c0,-0.516 -0.451,-0.936 -0.935,-0.936c-0.581,0 -0.936,0.42 -0.936,0.936c0,0.549 0.355,1.001 0.936,1.001Zm18.395,-0.065c0.516,0 0.871,-0.419 0.871,-0.936c0,-0.516 -0.355,-0.903 -0.871,-0.903c-0.484,0 -0.936,0.387 -0.936,0.903c0,0.517 0.452,0.936 0.936,0.936Zm-36.791,-0.678c0.097,0 0.161,-0.129 0.161,-0.258c0,-0.097 -0.064,-0.193 -0.161,-0.193c-0.129,0 -0.194,0.096 -0.194,0.193c0,0.129 0.065,0.258 0.194,0.258Zm-36.823,-0.193c0.064,0 0.064,0 0.064,-0.065c0,0 0,-0.032 -0.064,-0.032l0,0.097Zm18.395,0c0.065,0 0.065,0 0.065,-0.065c0,0 0,-0.032 -0.065,-0.032l-0.064,0.032c0,0.065 0.064,0.065 0.064,0.065Zm128.769,-12.361c3.356,0 6.067,-2.711 6.067,-6.067c0,-3.356 -2.711,-6.1 -6.067,-6.1c-3.324,0 -6.035,2.744 -6.035,6.1c0,3.356 2.711,6.067 6.035,6.067Zm-18.396,-0.129c3.292,0 6.003,-2.646 6.003,-5.938c0,-3.324 -2.711,-5.97 -6.003,-5.97c-3.259,0 -5.906,2.646 -5.906,5.97c0,3.292 2.647,5.938 5.906,5.938Zm36.824,-0.548c2.969,0 5.422,-2.421 5.422,-5.39c0,-3.001 -2.453,-5.39 -5.422,-5.39c-3.034,0 -5.422,2.389 -5.422,5.39c0,2.969 2.388,5.39 5.422,5.39Zm18.395,-1.453c2.13,0 3.905,-1.775 3.905,-3.937c0,-2.195 -1.775,-3.97 -3.905,-3.97c-2.194,0 -3.969,1.775 -3.969,3.97c0,2.162 1.775,3.937 3.969,3.937Zm-73.614,-0.161c2.065,0 3.776,-1.678 3.776,-3.776c0,-2.098 -1.711,-3.776 -3.776,-3.776c-2.098,0 -3.776,1.678 -3.776,3.776c0,2.098 1.678,3.776 3.776,3.776Zm-36.759,-0.161c1.969,0 3.582,-1.614 3.582,-3.615c0,-2.001 -1.613,-3.647 -3.582,-3.647c-2.001,0 -3.647,1.646 -3.647,3.647c0,2.001 1.646,3.615 3.647,3.615Zm18.363,-0.194c1.872,0 3.453,-1.549 3.453,-3.421c0,-1.872 -1.581,-3.421 -3.453,-3.421c-1.839,0 -3.421,1.549 -3.421,3.421c0,1.872 1.582,3.421 3.421,3.421Zm-36.758,-2.905c0.258,0 0.484,-0.258 0.484,-0.516c0,-0.29 -0.226,-0.516 -0.484,-0.516c-0.259,0 -0.517,0.226 -0.517,0.516c0,0.258 0.258,0.516 0.517,0.516Zm-18.396,-0.322c0.097,0 0.161,-0.129 0.161,-0.194c0,-0.097 -0.064,-0.194 -0.161,-0.194c-0.129,0 -0.194,0.097 -0.194,0.194c0,0.065 0.065,0.194 0.194,0.194Zm-36.823,-0.162c0.064,0 0.064,-0.032 0.064,-0.032c0,-0.032 0,-0.032 -0.064,-0.032l0,0.064Zm18.395,0c0.065,0 0.065,-0.032 0.065,-0.032c0,-0.032 0,-0.032 -0.065,-0.032c0,0 -0.064,0 -0.064,0.032l0.064,0.032Zm128.769,-11.941c3.614,0 6.584,-2.904 6.584,-6.487c0,-3.614 -2.97,-6.551 -6.584,-6.551c-3.582,0 -6.551,2.937 -6.551,6.551c0,3.583 2.969,6.487 6.551,6.487Zm-36.791,0c3.647,0 6.551,-2.904 6.551,-6.487c0,-3.614 -2.904,-6.551 -6.551,-6.551c-3.615,0 -6.487,2.937 -6.487,6.551c0,3.583 2.872,6.487 6.487,6.487Zm18.395,-0.032c3.583,0 6.487,-2.872 6.487,-6.455c0,-3.582 -2.904,-6.486 -6.487,-6.486c-3.582,0 -6.486,2.904 -6.486,6.486c0,3.583 2.904,6.455 6.486,6.455Zm55.219,-1.291c2.84,0 5.164,-2.291 5.164,-5.164c0,-2.904 -2.324,-5.228 -5.164,-5.228c-2.904,0 -5.228,2.324 -5.228,5.228c0,2.873 2.324,5.164 5.228,5.164Zm-18.395,0c2.84,0 5.163,-2.291 5.163,-5.164c0,-2.904 -2.323,-5.228 -5.163,-5.228c-2.905,0 -5.228,2.324 -5.228,5.228c0,2.873 2.323,5.164 5.228,5.164Zm-73.615,0c2.873,0 5.228,-2.291 5.228,-5.164c0,-2.904 -2.355,-5.228 -5.228,-5.228c-2.84,0 -5.196,2.324 -5.196,5.228c0,2.873 2.356,5.164 5.196,5.164Zm-18.363,-0.323c2.646,0 4.809,-2.194 4.809,-4.841c0,-2.678 -2.163,-4.84 -4.809,-4.84c-2.711,0 -4.841,2.162 -4.841,4.84c0,2.647 2.13,4.841 4.841,4.841Zm-18.395,-3.162c0.935,0 1.71,-0.775 1.71,-1.679c0,-0.935 -0.775,-1.71 -1.71,-1.71c-0.936,0 -1.711,0.775 -1.711,1.71c0,0.904 0.775,1.679 1.711,1.679Zm-18.396,-1.485c0.097,0 0.161,-0.097 0.161,-0.194c0,-0.129 -0.064,-0.225 -0.161,-0.225c-0.129,0 -0.194,0.096 -0.194,0.225c0,0.097 0.065,0.194 0.194,0.194Zm-36.823,-0.161c0.064,0 0.064,-0.033 0.064,-0.033c0,-0.064 0,-0.064 -0.064,-0.064l0,0.097Zm18.395,0c0.065,0 0.065,-0.033 0.065,-0.033c0,-0.064 0,-0.064 -0.065,-0.064c0,0 -0.064,0 -0.064,0.064l0.064,0.033Zm73.582,-11.328c3.97,0 7.1,-3.195 7.1,-7.1c0,-3.905 -3.13,-7.1 -7.1,-7.1c-3.937,0 -7.067,3.195 -7.067,7.1c0,3.905 3.13,7.1 7.067,7.1Zm18.396,-0.291c3.776,0 6.874,-3.033 6.874,-6.809c0,-3.776 -3.098,-6.842 -6.874,-6.842c-3.776,0 -6.81,3.066 -6.81,6.842c0,3.776 3.034,6.809 6.81,6.809Zm18.395,-0.774c3.357,0 6.068,-2.711 6.068,-6.035c0,-3.356 -2.711,-6.067 -6.068,-6.067c-3.324,0 -6.035,2.711 -6.035,6.067c0,3.324 2.711,6.035 6.035,6.035Zm18.396,-0.807c2.905,0 5.26,-2.324 5.26,-5.228c0,-2.905 -2.355,-5.261 -5.26,-5.261c-2.872,0 -5.228,2.356 -5.228,5.261c0,2.904 2.356,5.228 5.228,5.228Zm18.428,-0.032c2.84,0 5.163,-2.324 5.163,-5.196c0,-2.872 -2.323,-5.196 -5.163,-5.196c-2.905,0 -5.228,2.324 -5.228,5.196c0,2.872 2.323,5.196 5.228,5.196Zm18.395,-0.613c2.518,0 4.551,-2.066 4.551,-4.583c0,-2.517 -2.033,-4.615 -4.551,-4.615c-2.582,0 -4.615,2.098 -4.615,4.615c0,2.517 2.033,4.583 4.615,4.583Zm-110.373,-2.582c1.13,0 2.033,-0.872 2.033,-2.001c0,-1.13 -0.903,-2.066 -2.033,-2.066c-1.129,0 -2.065,0.936 -2.065,2.066c0,1.129 0.936,2.001 2.065,2.001Zm-73.614,-1.678c0.193,0 0.322,-0.129 0.322,-0.323c0,-0.194 -0.129,-0.323 -0.322,-0.323c-0.129,0 -0.259,0.129 -0.259,0.323c0,0.194 0.13,0.323 0.259,0.323Zm36.823,-0.065c0.097,0 0.226,-0.129 0.226,-0.258c0,-0.129 -0.129,-0.258 -0.226,-0.258c-0.129,0 -0.258,0.129 -0.258,0.258c0,0.129 0.129,0.258 0.258,0.258Zm18.396,-0.064c0.129,0 0.193,-0.065 0.193,-0.194c0,-0.129 -0.064,-0.194 -0.193,-0.194c-0.13,0 -0.194,0.065 -0.194,0.194c0,0.129 0.064,0.194 0.194,0.194Zm-36.824,-0.033c0.129,0 0.194,-0.097 0.194,-0.161c0,-0.097 -0.065,-0.161 -0.194,-0.161c-0.064,0 -0.129,0.064 -0.129,0.161c0,0.064 0.065,0.161 0.129,0.161Zm73.582,-11.069c4.131,0 7.488,-3.357 7.488,-7.488c0,-4.131 -3.357,-7.519 -7.488,-7.519c-4.098,0 -7.455,3.388 -7.455,7.519c0,4.131 3.357,7.488 7.455,7.488Zm18.396,-0.517c3.905,0 7.003,-3.098 7.003,-6.971c0,-3.872 -3.098,-7.003 -7.003,-7.003c-3.841,0 -7.003,3.131 -7.003,7.003c0,3.873 3.162,6.971 7.003,6.971Zm18.395,-0.548c3.55,0 6.423,-2.873 6.423,-6.423c0,-3.55 -2.873,-6.454 -6.423,-6.454c-3.517,0 -6.422,2.904 -6.422,6.454c0,3.55 2.905,6.423 6.422,6.423Zm-55.154,-0.517c3.292,0 5.938,-2.646 5.938,-5.906c0,-3.291 -2.646,-5.906 -5.938,-5.906c-3.26,0 -5.906,2.615 -5.906,5.906c0,3.26 2.646,5.906 5.906,5.906Zm73.55,-0.064c3.227,0 5.874,-2.614 5.874,-5.842c0,-3.227 -2.647,-5.873 -5.874,-5.873c-3.195,0 -5.841,2.646 -5.841,5.873c0,3.228 2.646,5.842 5.841,5.842Zm18.428,-0.807c2.775,0 5.034,-2.259 5.034,-5.035c0,-2.775 -2.259,-5.066 -5.034,-5.066c-2.84,0 -5.035,2.291 -5.035,5.066c0,2.776 2.195,5.035 5.035,5.035Zm-110.373,-0.258c2.646,0 4.776,-2.13 4.776,-4.777c0,-2.646 -2.13,-4.808 -4.776,-4.808c-2.647,0 -4.809,2.162 -4.809,4.808c0,2.647 2.162,4.777 4.809,4.777Zm128.768,-0.388c2.388,0 4.357,-1.968 4.357,-4.389c0,-2.42 -1.969,-4.389 -4.357,-4.389c-2.452,0 -4.421,1.969 -4.421,4.389c0,2.421 1.969,4.389 4.421,4.389Zm-147.164,-0.742c2.001,0 3.647,-1.613 3.647,-3.647c0,-2.033 -1.646,-3.679 -3.647,-3.679c-2.033,0 -3.679,1.646 -3.679,3.679c0,2.034 1.646,3.647 3.679,3.647Zm-18.428,-3.163c0.323,0 0.517,-0.193 0.517,-0.484c0,-0.258 -0.194,-0.516 -0.517,-0.516c-0.258,0 -0.484,0.258 -0.484,0.516c0,0.291 0.226,0.484 0.484,0.484Zm-18.395,-0.032c0.322,0 0.516,-0.226 0.516,-0.452c0,-0.258 -0.194,-0.451 -0.516,-0.451c-0.194,0 -0.452,0.193 -0.452,0.451c0,0.226 0.258,0.452 0.452,0.452Zm73.614,-10.908c4.357,0 7.939,-3.55 7.939,-7.971c0,-4.357 -3.582,-7.94 -7.939,-7.94c-4.421,0 -7.939,3.583 -7.939,7.94c0,4.421 3.518,7.971 7.939,7.971Zm-36.791,-0.032c4.325,0 7.939,-3.518 7.939,-7.939c0,-4.357 -3.614,-7.875 -7.939,-7.875c-4.357,0 -7.907,3.518 -7.907,7.875c0,4.421 3.55,7.939 7.907,7.939Zm18.396,0c4.356,0 7.874,-3.518 7.874,-7.939c0,-4.357 -3.518,-7.875 -7.874,-7.875c-4.357,0 -7.875,3.518 -7.875,7.875c0,4.421 3.518,7.939 7.875,7.939Zm36.758,-0.42c4.131,0 7.488,-3.356 7.488,-7.519c0,-4.131 -3.357,-7.456 -7.488,-7.456c-4.098,0 -7.455,3.325 -7.455,7.456c0,4.163 3.357,7.519 7.455,7.519Zm18.396,-0.516c3.905,0 7.003,-3.131 7.003,-7.003c0,-3.841 -3.098,-6.971 -7.003,-6.971c-3.841,0 -7.003,3.13 -7.003,6.971c0,3.872 3.162,7.003 7.003,7.003Zm18.395,-0.065c3.841,0 6.939,-3.098 6.939,-6.938c0,-3.809 -3.098,-6.939 -6.939,-6.939c-3.84,0 -6.938,3.13 -6.938,6.939c0,3.84 3.098,6.938 6.938,6.938Zm18.396,-0.516c3.55,0 6.455,-2.808 6.455,-6.422c0,-3.518 -2.905,-6.391 -6.455,-6.391c-3.518,0 -6.422,2.873 -6.422,6.391c0,3.614 2.904,6.422 6.422,6.422Zm18.428,-0.839c3.066,0 5.551,-2.485 5.551,-5.583c0,-3.034 -2.485,-5.551 -5.551,-5.551c-3.098,0 -5.551,2.517 -5.551,5.551c0,3.098 2.453,5.583 5.551,5.583Zm18.395,-0.549c2.711,0 4.97,-2.259 4.97,-5.034c0,-2.744 -2.259,-4.97 -4.97,-4.97c-2.775,0 -5.034,2.226 -5.034,4.97c0,2.775 2.259,5.034 5.034,5.034Zm-165.592,-2.679c1.323,0 2.324,-1.032 2.324,-2.355c0,-1.259 -1.001,-2.324 -2.324,-2.324c-1.259,0 -2.324,1.065 -2.324,2.324c0,1.323 1.065,2.355 2.324,2.355Zm55.219,-13.716c3.841,0 7.003,-3.13 7.003,-7.003c0,-3.872 -3.162,-6.971 -7.003,-6.971c-3.905,0 -7.003,3.099 -7.003,6.971c0,3.873 3.098,7.003 7.003,7.003Zm-36.791,0c3.84,0 6.971,-3.13 6.971,-7.003c0,-3.872 -3.131,-6.971 -6.971,-6.971c-3.873,0 -7.003,3.099 -7.003,6.971c0,3.873 3.13,7.003 7.003,7.003Zm18.396,-0.355c3.646,0 6.615,-2.969 6.615,-6.648c0,-3.647 -2.969,-6.616 -6.615,-6.616c-3.647,0 -6.616,2.969 -6.616,6.616c0,3.679 2.969,6.648 6.616,6.648Zm91.945,-0.484c3.421,0 6.196,-2.743 6.196,-6.164c0,-3.421 -2.775,-6.164 -6.196,-6.164c-3.389,0 -6.164,2.743 -6.164,6.164c0,3.421 2.775,6.164 6.164,6.164Zm-36.791,0c3.389,0 6.164,-2.743 6.164,-6.164c0,-3.421 -2.775,-6.164 -6.164,-6.164c-3.421,0 -6.197,2.743 -6.197,6.164c0,3.421 2.776,6.164 6.197,6.164Zm18.395,0c3.421,0 6.197,-2.743 6.197,-6.164c0,-3.421 -2.776,-6.164 -6.197,-6.164c-3.388,0 -6.164,2.743 -6.164,6.164c0,3.421 2.776,6.164 6.164,6.164Zm-36.791,0c3.453,0 6.164,-2.743 6.164,-6.164c0,-3.421 -2.711,-6.164 -6.164,-6.164c-3.356,0 -6.132,2.743 -6.132,6.164c0,3.421 2.776,6.164 6.132,6.164Zm-73.582,-0.903c2.905,0 5.293,-2.356 5.293,-5.261c0,-2.904 -2.388,-5.26 -5.293,-5.26c-2.904,0 -5.228,2.356 -5.228,5.26c0,2.905 2.324,5.261 5.228,5.261Zm165.592,-0.258c2.711,0 4.97,-2.227 4.97,-5.003c0,-2.743 -2.259,-5.002 -4.97,-5.002c-2.775,0 -5.034,2.259 -5.034,5.002c0,2.776 2.259,5.003 5.034,5.003Zm-18.395,-0.71c2.323,0 4.292,-1.937 4.292,-4.293c0,-2.356 -1.969,-4.292 -4.292,-4.292c-2.388,0 -4.293,1.936 -4.293,4.292c0,2.356 1.905,4.293 4.293,4.293Zm-73.615,-14.814c4.325,0 7.875,-3.517 7.875,-7.842c0,-4.357 -3.55,-7.907 -7.875,-7.907c-4.292,0 -7.842,3.55 -7.842,7.907c0,4.325 3.55,7.842 7.842,7.842Zm-18.363,-0.613c4.034,0 7.261,-3.195 7.261,-7.229c0,-4.034 -3.227,-7.326 -7.261,-7.326c-4.034,0 -7.294,3.292 -7.294,7.326c0,4.034 3.26,7.229 7.294,7.229Zm-36.791,-0.387c3.776,0 6.842,-3.066 6.842,-6.842c0,-3.84 -3.066,-6.906 -6.842,-6.906c-3.808,0 -6.874,3.066 -6.874,6.906c0,3.776 3.066,6.842 6.874,6.842Zm73.55,-0.613c3.453,0 6.293,-2.776 6.293,-6.229c0,-3.485 -2.84,-6.325 -6.293,-6.325c-3.486,0 -6.261,2.84 -6.261,6.325c0,3.453 2.775,6.229 6.261,6.229Zm-55.154,-0.452c3.194,0 5.809,-2.582 5.809,-5.777c0,-3.227 -2.615,-5.841 -5.809,-5.841c-3.228,0 -5.81,2.614 -5.81,5.841c0,3.195 2.582,5.777 5.81,5.777Zm73.549,-0.387c3.034,0 5.422,-2.453 5.422,-5.39c0,-3.034 -2.388,-5.422 -5.422,-5.422c-2.969,0 -5.421,2.388 -5.421,5.422c0,2.937 2.452,5.39 5.421,5.39Zm-110.373,-0.614c2.647,0 4.809,-2.13 4.809,-4.776c0,-2.646 -2.162,-4.809 -4.809,-4.809c-2.646,0 -4.776,2.163 -4.776,4.809c0,2.646 2.13,4.776 4.776,4.776Zm128.769,-0.064c2.614,0 4.744,-2.13 4.744,-4.712c0,-2.646 -2.13,-4.776 -4.744,-4.776c-2.646,0 -4.712,2.13 -4.712,4.776c0,2.582 2.066,4.712 4.712,4.712Zm18.428,-0.387c2.388,0 4.357,-1.937 4.357,-4.325c0,-2.485 -1.969,-4.421 -4.357,-4.421c-2.453,0 -4.422,1.936 -4.422,4.421c0,2.388 1.969,4.325 4.422,4.325Zm18.395,-1.259c1.711,0 3.098,-1.388 3.098,-3.066c0,-1.743 -1.387,-3.13 -3.098,-3.13c-1.775,0 -3.162,1.387 -3.162,3.13c0,1.678 1.387,3.066 3.162,3.066Zm-183.987,-2.84c0.193,0 0.322,-0.129 0.322,-0.226c0,-0.161 -0.129,-0.258 -0.322,-0.258c-0.129,0 -0.194,0.097 -0.194,0.258c0,0.097 0.065,0.226 0.194,0.226Zm55.219,-10.457c4.518,0 8.197,-3.646 8.197,-8.197c0,-4.518 -3.679,-8.197 -8.197,-8.197c-4.551,0 -8.198,3.679 -8.198,8.197c0,4.551 3.647,8.197 8.198,8.197Zm18.395,-0.903c4.034,0 7.261,-3.26 7.261,-7.294c0,-4.034 -3.227,-7.293 -7.261,-7.293c-4.034,0 -7.294,3.259 -7.294,7.293c0,4.034 3.26,7.294 7.294,7.294Zm-36.791,-1.001c3.453,0 6.293,-2.807 6.293,-6.293c0,-3.453 -2.84,-6.261 -6.293,-6.261c-3.486,0 -6.261,2.808 -6.261,6.261c0,3.486 2.775,6.293 6.261,6.293Zm110.341,-0.258c3.356,0 6.003,-2.678 6.003,-6.035c0,-3.324 -2.647,-6.003 -6.003,-6.003c-3.324,0 -5.971,2.679 -5.971,6.003c0,3.357 2.647,6.035 5.971,6.035Zm18.428,-0.161c3.195,0 5.841,-2.647 5.841,-5.874c0,-3.227 -2.646,-5.841 -5.841,-5.841c-3.292,0 -5.874,2.614 -5.874,5.841c0,3.227 2.582,5.874 5.874,5.874Zm-36.824,0c3.228,0 5.874,-2.647 5.874,-5.874c0,-3.227 -2.646,-5.841 -5.874,-5.841c-3.195,0 -5.873,2.614 -5.873,5.841c0,3.227 2.678,5.874 5.873,5.874Zm-18.395,-0.452c3.034,0 5.422,-2.453 5.422,-5.422c0,-2.969 -2.388,-5.422 -5.422,-5.422c-2.969,0 -5.357,2.453 -5.357,5.422c0,2.969 2.388,5.422 5.357,5.422Zm-18.396,-0.613c2.679,0 4.841,-2.162 4.841,-4.809c0,-2.646 -2.162,-4.776 -4.841,-4.776c-2.614,0 -4.808,2.13 -4.808,4.776c0,2.647 2.194,4.809 4.808,4.809Zm92.01,-0.839c2.13,0 3.97,-1.743 3.97,-3.97c0,-2.194 -1.84,-3.969 -3.97,-3.969c-2.194,0 -3.969,1.775 -3.969,3.969c0,2.227 1.775,3.97 3.969,3.97Zm-165.592,-3.292c0.387,0 0.71,-0.291 0.71,-0.678c0,-0.355 -0.323,-0.645 -0.71,-0.645c-0.323,0 -0.613,0.29 -0.613,0.645c0,0.387 0.29,0.678 0.613,0.678Zm-18.395,-0.161c0.322,0 0.548,-0.226 0.548,-0.517c0,-0.258 -0.226,-0.484 -0.548,-0.484c-0.259,0 -0.517,0.226 -0.517,0.484c0,0.291 0.258,0.517 0.517,0.517Zm128.768,-13.361c3.099,0 5.551,-2.453 5.551,-5.551c0,-3.066 -2.452,-5.551 -5.551,-5.551c-3.098,0 -5.551,2.485 -5.551,5.551c0,3.098 2.453,5.551 5.551,5.551Zm-36.791,-0.291c2.937,0 5.293,-2.356 5.293,-5.26c0,-2.905 -2.356,-5.229 -5.293,-5.229c-2.904,0 -5.26,2.324 -5.26,5.229c0,2.904 2.356,5.26 5.26,5.26Zm18.396,-0.258c2.775,0 5.034,-2.227 5.034,-5.002c0,-2.744 -2.259,-4.97 -5.034,-4.97c-2.711,0 -4.97,2.226 -4.97,4.97c0,2.775 2.259,5.002 4.97,5.002Zm36.791,-0.226c2.646,0 4.809,-2.13 4.809,-4.776c0,-2.647 -2.163,-4.777 -4.809,-4.777c-2.646,0 -4.776,2.13 -4.776,4.777c0,2.646 2.13,4.776 4.776,4.776Zm18.428,0c2.646,0 4.776,-2.13 4.776,-4.776c0,-2.647 -2.13,-4.777 -4.776,-4.777c-2.647,0 -4.809,2.13 -4.809,4.777c0,2.646 2.162,4.776 4.809,4.776Zm18.395,-0.032c2.582,0 4.744,-2.098 4.744,-4.744c0,-2.614 -2.162,-4.744 -4.744,-4.744c-2.646,0 -4.776,2.13 -4.776,4.744c0,2.646 2.13,4.744 4.776,4.744Zm-110.373,-0.807c2.162,0 3.905,-1.775 3.905,-3.937c0,-2.13 -1.743,-3.905 -3.905,-3.905c-2.195,0 -3.97,1.775 -3.97,3.905c0,2.162 1.775,3.937 3.97,3.937Zm-18.395,-0.613c1.807,0 3.324,-1.485 3.324,-3.324c0,-1.84 -1.517,-3.324 -3.324,-3.324c-1.84,0 -3.357,1.484 -3.357,3.324c0,1.839 1.517,3.324 3.357,3.324Zm-18.396,-0.226c1.678,0 3.066,-1.388 3.066,-3.098c0,-1.711 -1.388,-3.066 -3.066,-3.066c-1.711,0 -3.034,1.355 -3.034,3.066c0,1.71 1.323,3.098 3.034,3.098Zm-36.823,-0.323c1.581,0 2.775,-1.259 2.775,-2.775c0,-1.517 -1.194,-2.744 -2.775,-2.744c-1.517,0 -2.711,1.227 -2.711,2.744c0,1.516 1.194,2.775 2.711,2.775Zm18.395,-1.194c0.904,0 1.581,-0.71 1.581,-1.581c0,-0.872 -0.677,-1.582 -1.581,-1.582c-0.871,0 -1.581,0.71 -1.581,1.582c0,0.871 0.71,1.581 1.581,1.581Zm110.373,-14.071c3.292,0 5.939,-2.646 5.939,-5.906c0,-3.259 -2.647,-5.906 -5.939,-5.906c-3.259,0 -5.906,2.647 -5.906,5.906c0,3.26 2.647,5.906 5.906,5.906Zm36.824,-0.904c2.775,0 4.97,-2.226 4.97,-5.002c0,-2.743 -2.195,-5.002 -4.97,-5.002c-2.776,0 -5.035,2.259 -5.035,5.002c0,2.776 2.259,5.002 5.035,5.002Zm-18.428,0c2.775,0 5.002,-2.226 5.002,-5.002c0,-2.743 -2.227,-5.002 -5.002,-5.002c-2.743,0 -4.97,2.259 -4.97,5.002c0,2.776 2.227,5.002 4.97,5.002Zm36.823,0c2.711,0 4.97,-2.226 4.97,-5.002c0,-2.743 -2.259,-5.002 -4.97,-5.002c-2.775,0 -5.034,2.259 -5.034,5.002c0,2.776 2.259,5.002 5.034,5.002Zm-73.614,-0.548c2.453,0 4.454,-2.001 4.454,-4.454c0,-2.453 -2.001,-4.421 -4.454,-4.421c-2.453,0 -4.422,1.968 -4.422,4.421c0,2.453 1.969,4.454 4.422,4.454Zm-36.759,-0.194c2.324,0 4.292,-1.872 4.292,-4.26c0,-2.356 -1.968,-4.26 -4.292,-4.26c-2.388,0 -4.292,1.904 -4.292,4.26c0,2.388 1.904,4.26 4.292,4.26Zm-18.395,-0.678c1.936,0 3.517,-1.581 3.517,-3.582c0,-1.969 -1.581,-3.582 -3.517,-3.582c-1.969,0 -3.583,1.613 -3.583,3.582c0,2.001 1.614,3.582 3.583,3.582Zm36.758,0c2.001,0 3.583,-1.581 3.583,-3.582c0,-1.969 -1.582,-3.582 -3.583,-3.582c-1.968,0 -3.55,1.613 -3.55,3.582c0,2.001 1.582,3.582 3.55,3.582Zm-73.582,-0.742c1.581,0 2.84,-1.291 2.84,-2.84c0,-1.517 -1.259,-2.775 -2.84,-2.775c-1.517,0 -2.775,1.258 -2.775,2.775c0,1.549 1.258,2.84 2.775,2.84Zm18.428,-0.839c1.13,0 2.001,-0.871 2.001,-2.001c0,-1.097 -0.871,-1.969 -2.001,-1.969c-1.097,0 -1.969,0.872 -1.969,1.969c0,1.13 0.872,2.001 1.969,2.001Zm-36.823,-1.807c0.129,0 0.193,-0.065 0.193,-0.194c0,-0.064 -0.064,-0.129 -0.193,-0.129c-0.065,0 -0.129,0.065 -0.129,0.129c0,0.129 0.064,0.194 0.129,0.194Zm128.768,-12.135c3.55,0 6.423,-2.872 6.423,-6.454c0,-3.551 -2.873,-6.423 -6.423,-6.423c-3.517,0 -6.422,2.872 -6.422,6.423c0,3.582 2.905,6.454 6.422,6.454Zm36.824,-0.258c3.388,0 6.164,-2.743 6.164,-6.196c0,-3.389 -2.776,-6.132 -6.164,-6.132c-3.421,0 -6.197,2.743 -6.197,6.132c0,3.453 2.776,6.196 6.197,6.196Zm18.395,-1.356c2.647,0 4.809,-2.162 4.809,-4.84c0,-2.679 -2.162,-4.809 -4.809,-4.809c-2.711,0 -4.841,2.13 -4.841,4.809c0,2.678 2.13,4.84 4.841,4.84Zm-73.614,-0.032c2.646,0 4.776,-2.162 4.776,-4.808c0,-2.647 -2.13,-4.777 -4.776,-4.777c-2.647,0 -4.809,2.13 -4.809,4.777c0,2.646 2.162,4.808 4.809,4.808Zm36.791,-0.226c2.55,0 4.615,-2.033 4.615,-4.582c0,-2.55 -2.065,-4.551 -4.615,-4.551c-2.517,0 -4.583,2.001 -4.583,4.551c0,2.549 2.066,4.582 4.583,4.582Zm-110.341,-0.71c2.13,0 3.905,-1.71 3.905,-3.872c0,-2.13 -1.775,-3.873 -3.905,-3.873c-2.162,0 -3.873,1.743 -3.873,3.873c0,2.162 1.711,3.872 3.873,3.872Zm55.154,-0.613c1.808,0 3.26,-1.452 3.26,-3.259c0,-1.775 -1.452,-3.228 -3.26,-3.228c-1.775,0 -3.227,1.453 -3.227,3.228c0,1.807 1.452,3.259 3.227,3.259Zm-36.758,-0.452c1.516,0 2.775,-1.258 2.775,-2.807c0,-1.55 -1.259,-2.808 -2.775,-2.808c-1.582,0 -2.841,1.258 -2.841,2.808c0,1.549 1.259,2.807 2.841,2.807Zm18.395,-0.548c1.194,0 2.227,-1.033 2.227,-2.259c0,-1.227 -1.033,-2.227 -2.227,-2.227c-1.259,0 -2.259,1 -2.259,2.227c0,1.226 1,2.259 2.259,2.259Zm-55.219,-2.227c0.065,0 0.065,0 0.065,-0.032c0,-0.033 0,-0.033 -0.065,-0.033c0,0 -0.064,0 -0.064,0.033c0,0.032 0.064,0.032 0.064,0.032Zm-18.395,0c0.064,0 0.064,0 0.064,-0.032c0,-0.033 0,-0.033 -0.064,-0.033l0,0.065Zm183.987,-11.36c3.841,0 7.004,-3.195 7.004,-7.036c0,-3.905 -3.163,-7.068 -7.004,-7.068c-3.905,0 -7.067,3.163 -7.067,7.068c0,3.841 3.162,7.036 7.067,7.036Zm-36.823,-3.066c2.227,0 3.97,-1.807 3.97,-3.97c0,-2.194 -1.743,-4.002 -3.97,-4.002c-2.195,0 -3.97,1.808 -3.97,4.002c0,2.163 1.775,3.97 3.97,3.97Zm18.428,-0.065c2.13,0 3.905,-1.775 3.905,-3.905c0,-2.194 -1.775,-3.937 -3.905,-3.937c-2.227,0 -3.905,1.743 -3.905,3.937c0,2.13 1.678,3.905 3.905,3.905Zm-91.978,-1.129c1.517,0 2.776,-1.259 2.776,-2.776c0,-1.581 -1.259,-2.84 -2.776,-2.84c-1.581,0 -2.84,1.259 -2.84,2.84c0,1.517 1.259,2.776 2.84,2.776Zm18.363,-0.388c1.356,0 2.389,-1.065 2.389,-2.388c0,-1.323 -1.033,-2.388 -2.389,-2.388c-1.355,0 -2.42,1.065 -2.42,2.388c0,1.323 1.065,2.388 2.42,2.388Zm36.791,-0.064c1.324,0 2.324,-1.065 2.324,-2.324c0,-1.323 -1,-2.356 -2.324,-2.356c-1.258,0 -2.323,1.033 -2.323,2.356c0,1.259 1.065,2.324 2.323,2.324Zm-73.549,-0.097c1.258,0 2.259,-1 2.259,-2.227c0,-1.258 -1.001,-2.259 -2.259,-2.259c-1.259,0 -2.26,1.001 -2.26,2.259c0,1.227 1.001,2.227 2.26,2.227Zm55.154,-0.387c1,0 1.807,-0.839 1.807,-1.84c0,-1.032 -0.807,-1.872 -1.807,-1.872c-1.001,0 -1.84,0.84 -1.84,1.872c0,1.001 0.839,1.84 1.84,1.84Zm-110.373,-1.323c0.322,0 0.548,-0.259 0.548,-0.517c0,-0.322 -0.226,-0.516 -0.548,-0.516c-0.259,0 -0.517,0.194 -0.517,0.516c0,0.258 0.258,0.517 0.517,0.517Zm18.395,-0.226c0.194,0 0.323,-0.129 0.323,-0.291c0,-0.193 -0.129,-0.322 -0.323,-0.322c-0.129,0 -0.323,0.129 -0.323,0.322c0,0.162 0.194,0.291 0.323,0.291Zm18.428,-0.258l0.032,-0.033c0,-0.064 -0.032,-0.064 -0.032,-0.064c0,0 -0.065,0 -0.065,0.064l0.065,0.033Zm147.164,-14.039c2.388,0 4.422,-1.937 4.422,-4.389c0,-2.453 -2.034,-4.454 -4.422,-4.454c-2.452,0 -4.486,2.001 -4.486,4.454c0,2.452 2.034,4.389 4.486,4.389Zm-92.01,-2.001c1.356,0 2.389,-1.065 2.389,-2.388c0,-1.323 -1.033,-2.421 -2.389,-2.421c-1.355,0 -2.42,1.098 -2.42,2.421c0,1.323 1.065,2.388 2.42,2.388Zm18.396,-0.097c1.258,0 2.324,-1.033 2.324,-2.291c0,-1.259 -1.066,-2.324 -2.324,-2.324c-1.259,0 -2.259,1.065 -2.259,2.324c0,1.258 1,2.291 2.259,2.291Zm55.219,-0.226c1.129,0 2.065,-0.936 2.065,-2.065c0,-1.162 -0.936,-2.098 -2.065,-2.098c-1.194,0 -2.163,0.936 -2.163,2.098c0,1.129 0.969,2.065 2.163,2.065Zm-18.428,-0.258c1.033,0 1.84,-0.807 1.84,-1.807c0,-1.033 -0.807,-1.84 -1.84,-1.84c-1.001,0 -1.807,0.807 -1.807,1.84c0,1 0.806,1.807 1.807,1.807Zm-18.396,-0.42c0.775,0 1.388,-0.645 1.388,-1.387c0,-0.775 -0.613,-1.388 -1.388,-1.388c-0.742,0 -1.387,0.613 -1.387,1.388c0,0.742 0.645,1.387 1.387,1.387Zm-110.373,-0.193c0.71,0 1.259,-0.549 1.259,-1.194c0,-0.71 -0.549,-1.227 -1.259,-1.227c-0.613,0 -1.194,0.517 -1.194,1.227c0,0.645 0.581,1.194 1.194,1.194Zm18.428,-0.904c0.161,0 0.29,-0.097 0.29,-0.29c0,-0.194 -0.129,-0.323 -0.29,-0.323c-0.194,0 -0.323,0.129 -0.323,0.323c0,0.193 0.129,0.29 0.323,0.29Zm36.791,-0.097c0.065,0 0.194,-0.064 0.194,-0.193c0,-0.129 -0.129,-0.194 -0.194,-0.194c-0.129,0 -0.194,0.065 -0.194,0.194c0,0.129 0.065,0.193 0.194,0.193Zm-18.395,-0.129l0.064,-0.064c0,-0.033 -0.064,-0.065 -0.064,-0.065c-0.065,0 -0.065,0.032 -0.065,0.065c0,0 0,0.064 0.065,0.064Zm91.945,-16.201c1.291,0 2.291,-1.032 2.291,-2.291c0,-1.226 -1,-2.227 -2.291,-2.227c-1.259,0 -2.259,1.001 -2.259,2.227c0,1.259 1,2.291 2.259,2.291Zm18.428,-0.452c1,0 1.807,-0.806 1.807,-1.839c0,-1.001 -0.807,-1.807 -1.807,-1.807c-1.001,0 -1.84,0.806 -1.84,1.807c0,1.033 0.839,1.839 1.84,1.839Zm18.395,-0.451c0.775,0 1.324,-0.614 1.324,-1.388c0,-0.742 -0.549,-1.388 -1.324,-1.388c-0.806,0 -1.387,0.646 -1.387,1.388c0,0.774 0.581,1.388 1.387,1.388Zm-73.614,-0.872c0.323,0 0.484,-0.193 0.484,-0.516c0,-0.258 -0.161,-0.484 -0.484,-0.484c-0.258,0 -0.517,0.226 -0.517,0.484c0,0.323 0.259,0.516 0.517,0.516Zm18.395,-0.064c0.259,0 0.452,-0.194 0.452,-0.452c0,-0.226 -0.193,-0.42 -0.452,-0.42c-0.258,0 -0.451,0.194 -0.451,0.42c0,0.258 0.193,0.452 0.451,0.452Zm-73.549,-0.291c0.064,0 0.129,-0.064 0.129,-0.161c0,-0.065 -0.065,-0.129 -0.129,-0.129c-0.065,0 -0.194,0.064 -0.194,0.129c0,0.097 0.129,0.161 0.194,0.161Zm-18.396,-0.097c0,0 0.032,-0.032 0.032,-0.064l-0.032,-0.065l-0.065,0.065c0,0.032 0.065,0.064 0.065,0.064Zm128.769,-14.2c2.323,0 4.227,-1.904 4.227,-4.26c0,-2.323 -1.904,-4.227 -4.227,-4.227c-2.356,0 -4.228,1.904 -4.228,4.227c0,2.356 1.872,4.26 4.228,4.26Zm18.395,-2.549c0.872,0 1.646,-0.775 1.646,-1.711c0,-0.903 -0.774,-1.646 -1.646,-1.646c-0.936,0 -1.71,0.743 -1.71,1.646c0,0.936 0.774,1.711 1.71,1.711Zm-73.614,-1.388c0.194,0 0.323,-0.129 0.323,-0.323c0,-0.161 -0.129,-0.29 -0.323,-0.29c-0.129,0 -0.258,0.129 -0.258,0.29c0,0.194 0.129,0.323 0.258,0.323Zm18.395,-0.032c0.129,0 0.259,-0.129 0.259,-0.291c0,-0.129 -0.13,-0.258 -0.259,-0.258c-0.129,0 -0.258,0.129 -0.258,0.258c0,0.162 0.129,0.291 0.258,0.291Zm-55.154,-0.065c0.065,0 0.194,-0.097 0.194,-0.226c0,-0.096 -0.129,-0.193 -0.194,-0.193c-0.129,0 -0.194,0.097 -0.194,0.193c0,0.129 0.065,0.226 0.194,0.226Zm73.55,0c0.129,0 0.194,-0.097 0.194,-0.226c0,-0.096 -0.065,-0.193 -0.194,-0.193c-0.097,0 -0.161,0.097 -0.161,0.193c0,0.129 0.064,0.226 0.161,0.226Zm-55.187,-0.161c0.033,0 0.033,0 0.033,-0.065c0,0 0,-0.032 -0.033,-0.032l0,0.097Zm92.01,-15.814c1.388,0 2.582,-1.194 2.582,-2.614c0,-1.42 -1.194,-2.614 -2.582,-2.614c-1.452,0 -2.646,1.194 -2.646,2.614c0,1.42 1.194,2.614 2.646,2.614Zm-18.395,-2.323c0.129,0 0.322,-0.13 0.322,-0.291c0,-0.161 -0.193,-0.323 -0.322,-0.323c-0.194,0 -0.323,0.162 -0.323,0.323c0,0.161 0.129,0.291 0.323,0.291Zm-18.428,-0.033c0.129,0 0.258,-0.097 0.258,-0.258c0,-0.161 -0.129,-0.258 -0.258,-0.258c-0.097,0 -0.226,0.097 -0.226,0.258c0,0.161 0.129,0.258 0.226,0.258Zm-55.187,-0.032c0.097,0 0.226,-0.129 0.226,-0.226c0,-0.097 -0.129,-0.226 -0.226,-0.226c-0.064,0 -0.193,0.129 -0.193,0.226c0,0.097 0.129,0.226 0.193,0.226Zm36.791,-0.065c0.065,0 0.194,-0.064 0.194,-0.161c0,-0.097 -0.129,-0.161 -0.194,-0.161c-0.064,0 -0.129,0.064 -0.129,0.161c0,0.097 0.065,0.161 0.129,0.161Zm-55.154,-0.129c0,0 0.065,0 0.065,-0.032c0,-0.032 -0.065,-0.032 -0.065,-0.032c-0.065,0 -0.065,0 -0.065,0.032c0,0.032 0,0.032 0.065,0.032Zm110.373,-16.846c0.807,0 1.582,-0.71 1.582,-1.581c0,-0.872 -0.775,-1.582 -1.582,-1.582c-0.871,0 -1.646,0.71 -1.646,1.582c0,0.871 0.775,1.581 1.646,1.581Zm-18.395,-1.194c0.193,0 0.355,-0.194 0.355,-0.387c0,-0.226 -0.162,-0.42 -0.355,-0.42c-0.258,0 -0.452,0.194 -0.452,0.42c0,0.193 0.194,0.387 0.452,0.387Zm-18.428,-0.194c0.129,0 0.194,-0.097 0.194,-0.193c0,-0.13 -0.065,-0.194 -0.194,-0.194c-0.097,0 -0.161,0.064 -0.161,0.194c0,0.096 0.064,0.193 0.161,0.193Zm36.823,-18.266c0.129,0 0.258,-0.129 0.258,-0.323c0,-0.194 -0.129,-0.323 -0.258,-0.323c-0.193,0 -0.322,0.129 -0.322,0.323c0,0.194 0.129,0.323 0.322,0.323Zm0,-18.783c-0.064,0 -0.064,0.064 -0.064,0.064c0,0.033 0,0.065 0.064,0.065l0,-0.129l0,0Z"
                                                  vector-effect="non-scaling-stroke"/></g></svg>