<?xml version="1.0" encoding="UTF-8" standalone="no"?><!DOCTYPE svg PUBLIC "-//W3C//DTD SVG 1.1//EN"
        "http://www.w3.org/Graphics/SVG/1.1/DTD/svg11.dtd">
<svg width="100%" height="100%" viewBox="0 0 61 13" version="1.1" xmlns="http://www.w3.org/2000/svg"
     xmlns:xlink="http://www.w3.org/1999/xlink" xml:space="preserve" xmlns:serif="http://www.serif.com/"
     style="fill-rule:evenodd;clip-rule:evenodd;stroke-miterlimit:1.5;"><g><path d="M58.502,6.152c0,-2.4 -1.949,-4.349 -4.35,-4.349l-48,0c-2.4,0 -4.349,1.949 -4.349,4.349c0,2.401 1.949,4.35 4.349,4.35l48,0c2.401,0 4.35,-1.949 4.35,-4.35Z" style="fill:#d9d9d9;stroke:#323232;stroke-width:2px;"/><g><path d="M56.327,2.386c2.079,1.2 2.792,3.862 1.592,5.941c-1.2,2.079 -3.863,2.792 -5.941,1.592c-2.079,-1.2 -2.793,-3.863 -1.592,-5.941c1.2,-2.079 3.862,-2.793 5.941,-1.592Z" style="fill:#fff;stroke:#404040;stroke-width:2px;"/>
    <path d="M54.797,5.036c0.616,0.356 0.827,1.145 0.471,1.761c-0.355,0.616 -1.144,0.827 -1.76,0.471c-0.616,-0.355 -0.827,-1.144 -0.472,-1.76c0.356,-0.616 1.145,-0.827 1.761,-0.472Z"
          style="fill:#323232;"/>
    <path d="M56.311,3.12l-0.612,-0.353l-1.237,2.143l0.611,0.353l1.238,-2.143Z" style="fill:#bfbfbf;"/>
    <path d="M53.838,7.402l-0.611,-0.353l-1.238,2.143l0.612,0.353l1.237,-2.143Z" style="fill:#bfbfbf;"/></g><g><path d="M8.327,2.386c2.079,1.2 2.792,3.862 1.592,5.941c-1.2,2.079 -3.863,2.792 -5.941,1.592c-2.079,-1.2 -2.793,-3.863 -1.592,-5.941c1.2,-2.079 3.862,-2.793 5.941,-1.592Z" style="fill:#fff;stroke:#404040;stroke-width:2px;"/>
    <path d="M6.797,5.036c0.616,0.356 0.827,1.145 0.471,1.761c-0.355,0.616 -1.144,0.827 -1.76,0.471c-0.616,-0.355 -0.827,-1.144 -0.472,-1.76c0.356,-0.616 1.145,-0.827 1.761,-0.472Z"
          style="fill:#323232;"/>
    <path d="M8.311,3.12l-0.612,-0.353l-1.237,2.143l0.611,0.353l1.238,-2.143Z" style="fill:#bfbfbf;"/>
    <path d="M5.838,7.402l-0.611,-0.353l-1.238,2.143l0.612,0.353l1.237,-2.143Z" style="fill:#bfbfbf;"/></g></g></svg>