<?xml version="1.0" encoding="UTF-8" standalone="no"?><!DOCTYPE svg PUBLIC "-//W3C//DTD SVG 1.1//EN"
        "http://www.w3.org/Graphics/SVG/1.1/DTD/svg11.dtd">
<svg width="100%" height="100%" viewBox="0 0 82 111" version="1.1" xmlns="http://www.w3.org/2000/svg"
     xmlns:xlink="http://www.w3.org/1999/xlink" xml:space="preserve" xmlns:serif="http://www.serif.com/"
     style="fill-rule:evenodd;clip-rule:evenodd;stroke-linejoin:round;stroke-miterlimit:1.5;"><rect x="0.149" y="62" width="81" height="48.5" style="fill:#808080;"/>
    <circle cx="45.152" cy="65.75" r="2" style="fill:#323232;"/>
    <circle cx="35.152" cy="65.75" r="2" style="fill:#323232;"/>
    <path d="M40.152,62l0,48.5" style="fill:none;stroke:#404040;stroke-width:0.5px;"/>
    <g><g><path d="M71.502,23.041c0,-2.4 -1.949,-4.349 -4.35,-4.349l-48,0c-2.4,0 -4.349,1.949 -4.349,4.349c0,2.401 1.949,4.35 4.349,4.35l48,0c2.401,0 4.35,-1.949 4.35,-4.35Z" style="fill:#d9d9d9;stroke:#323232;stroke-width:2px;stroke-linejoin:miter;"/><g><path d="M69.327,19.275c2.079,1.2 2.792,3.862 1.592,5.941c-1.2,2.079 -3.863,2.792 -5.941,1.592c-2.079,-1.2 -2.793,-3.862 -1.592,-5.941c1.2,-2.079 3.862,-2.793 5.941,-1.592Z" style="fill:#fff;stroke:#404040;stroke-width:2px;stroke-linejoin:miter;"/>
        <path d="M67.797,21.925c0.616,0.356 0.827,1.145 0.471,1.761c-0.355,0.616 -1.144,0.827 -1.76,0.471c-0.616,-0.355 -0.827,-1.144 -0.472,-1.76c0.356,-0.616 1.145,-0.827 1.761,-0.472Z"
              style="fill:#323232;"/>
        <path d="M69.311,20.009l-0.612,-0.353l-1.237,2.143l0.611,0.353l1.238,-2.143Z" style="fill:#bfbfbf;"/>
        <path d="M66.838,24.291l-0.611,-0.353l-1.238,2.143l0.612,0.354l1.237,-2.144Z" style="fill:#bfbfbf;"/></g><g><path d="M21.327,19.275c2.079,1.2 2.792,3.862 1.592,5.941c-1.2,2.079 -3.863,2.792 -5.941,1.592c-2.079,-1.2 -2.793,-3.862 -1.592,-5.941c1.2,-2.079 3.862,-2.793 5.941,-1.592Z" style="fill:#fff;stroke:#404040;stroke-width:2px;stroke-linejoin:miter;"/>
        <path d="M19.797,21.925c0.616,0.356 0.827,1.145 0.471,1.761c-0.355,0.616 -1.144,0.827 -1.76,0.471c-0.616,-0.355 -0.827,-1.144 -0.472,-1.76c0.356,-0.616 1.145,-0.827 1.761,-0.472Z"
              style="fill:#323232;"/>
        <path d="M21.311,20.009l-0.612,-0.353l-1.237,2.143l0.611,0.353l1.238,-2.143Z" style="fill:#bfbfbf;"/>
        <path d="M18.838,24.291l-0.611,-0.353l-1.238,2.143l0.612,0.354l1.237,-2.144Z" style="fill:#bfbfbf;"/></g></g>
        <g><path d="M23.502,35.601c0,-2.401 -1.949,-4.35 -4.35,-4.35l-13,0c-2.4,0 -4.349,1.949 -4.349,4.35c0,2.4 1.949,4.349 4.349,4.349l13,0c2.401,0 4.35,-1.949 4.35,-4.349Z" style="fill:#d9d9d9;stroke:#323232;stroke-width:2px;stroke-linejoin:miter;"/>
            <g><path d="M21.327,31.834c2.079,1.2 2.792,3.863 1.592,5.942c-1.2,2.078 -3.863,2.792 -5.941,1.591c-2.079,-1.2 -2.793,-3.862 -1.592,-5.941c1.2,-2.079 3.862,-2.792 5.941,-1.592Z" style="fill:#fff;stroke:#404040;stroke-width:2px;stroke-linejoin:miter;"/>
                <path d="M19.797,34.485c0.616,0.355 0.827,1.144 0.471,1.76c-0.355,0.616 -1.144,0.828 -1.76,0.472c-0.616,-0.356 -0.827,-1.145 -0.472,-1.761c0.356,-0.615 1.145,-0.827 1.761,-0.471Z"
                      style="fill:#323232;"/>
                <path d="M21.311,32.569l-0.612,-0.353l-1.237,2.143l0.611,0.353l1.238,-2.143Z" style="fill:#bfbfbf;"/>
                <path d="M18.838,36.851l-0.611,-0.353l-1.238,2.143l0.612,0.353l1.237,-2.143Z" style="fill:#bfbfbf;"/></g></g>
        <rect x="5.152" y="28.574" width="32" height="1.495"
              style="fill:#f5f5f5;stroke:#808080;stroke-width:0.5px;stroke-linejoin:miter;"/>
        <rect x="27.97" y="27.391" width="2.364" height="2.678"
              style="fill:none;stroke:#323232;stroke-width:1px;stroke-linejoin:miter;"/>
        <rect x="55.97" y="27.391" width="2.364" height="2.678"
              style="fill:none;stroke:#323232;stroke-width:1px;stroke-linejoin:miter;"/></g>
    <path d="M0.149,0l0,62l81,0l0,-62l-81,0Zm7.648,9.951l65.703,0l0,42.098l-65.703,0l0,-42.098Z" style="fill:#666;"/>
    <path d="M8.531,8.886c-0.709,0.17 -0.791,0.315 -0.844,0.988l0,42.175c0.062,0.793 0.26,0.942 1,1l65.704,0c0.792,-0.062 0.941,-0.259 1,-1l0,-42.175c-0.063,-0.793 -0.26,-0.942 -1,-1l-65.704,0c-0.052,0.004 -0.104,0.008 -0.156,0.012Zm64.86,1.988l0,40.175l-63.704,0l0,-40.175l63.704,0Z"
          style="fill:#404040;"/></svg>