<?xml version="1.0" encoding="UTF-8" standalone="no"?><!DOCTYPE svg PUBLIC "-//W3C//DTD SVG 1.1//EN"
        "http://www.w3.org/Graphics/SVG/1.1/DTD/svg11.dtd">
<svg width="100%" height="100%" viewBox="0 0 81 98" version="1.1" xmlns="http://www.w3.org/2000/svg"
     xmlns:xlink="http://www.w3.org/1999/xlink" xml:space="preserve" xmlns:serif="http://www.serif.com/"
     style="fill-rule:evenodd;clip-rule:evenodd;stroke-miterlimit:1.5;"><g><path d="M69.297,44.5c0,-2.401 -1.949,-4.349 -4.35,-4.349l-48,0c-2.4,0 -4.349,1.948 -4.349,4.349c0,2.401 1.949,4.349 4.349,4.349l48,0c2.401,0 4.35,-1.948 4.35,-4.349Z" style="fill:#d9d9d9;stroke:#323232;stroke-width:2px;"/><g><path d="M67.122,40.733c2.079,1.201 2.792,3.863 1.592,5.942c-1.2,2.079 -3.863,2.792 -5.941,1.592c-2.079,-1.201 -2.793,-3.863 -1.592,-5.942c1.2,-2.079 3.862,-2.792 5.941,-1.592Z" style="fill:#fff;stroke:#404040;stroke-width:2px;"/>
    <path d="M65.592,43.384c0.616,0.356 0.827,1.144 0.471,1.76c-0.355,0.616 -1.144,0.828 -1.76,0.472c-0.616,-0.356 -0.827,-1.144 -0.472,-1.76c0.356,-0.616 1.145,-0.828 1.761,-0.472Z"
          style="fill:#323232;"/>
    <path d="M67.106,41.468l-0.612,-0.353l-1.237,2.143l0.611,0.353l1.238,-2.143Z" style="fill:#bfbfbf;"/>
    <path d="M64.633,45.75l-0.611,-0.353l-1.238,2.143l0.612,0.353l1.237,-2.143Z" style="fill:#bfbfbf;"/></g><g><path d="M19.122,40.733c2.079,1.201 2.792,3.863 1.592,5.942c-1.2,2.079 -3.863,2.792 -5.941,1.592c-2.079,-1.201 -2.793,-3.863 -1.592,-5.942c1.2,-2.079 3.862,-2.792 5.941,-1.592Z" style="fill:#fff;stroke:#404040;stroke-width:2px;"/>
    <path d="M17.592,43.384c0.616,0.356 0.827,1.144 0.471,1.76c-0.355,0.616 -1.144,0.828 -1.76,0.472c-0.616,-0.356 -0.827,-1.144 -0.472,-1.76c0.356,-0.616 1.145,-0.828 1.761,-0.472Z"
          style="fill:#323232;"/>
    <path d="M19.106,41.468l-0.612,-0.353l-1.237,2.143l0.611,0.353l1.238,-2.143Z" style="fill:#bfbfbf;"/>
    <path d="M16.633,45.75l-0.611,-0.353l-1.238,2.143l0.612,0.353l1.237,-2.143Z" style="fill:#bfbfbf;"/></g></g>
    <path d="M78.667,57.151c0,-2.401 -1.949,-4.35 -4.349,-4.35l-9.153,0c-2.401,0 -4.349,1.949 -4.349,4.35c0,2.4 1.948,4.349 4.349,4.349l9.153,0c2.4,0 4.349,-1.949 4.349,-4.349Z"
          style="fill:#d9d9d9;stroke:#323232;stroke-width:2px;"/>
    <g><path d="M67.34,53.384c2.079,1.2 2.792,3.862 1.592,5.941c-1.201,2.079 -3.863,2.792 -5.942,1.592c-2.079,-1.2 -2.792,-3.862 -1.592,-5.941c1.201,-2.079 3.863,-2.792 5.942,-1.592Z" style="fill:#fff;stroke:#404040;stroke-width:2px;"/>
        <path d="M65.809,56.035c0.616,0.355 0.828,1.144 0.472,1.76c-0.356,0.616 -1.144,0.827 -1.76,0.472c-0.616,-0.356 -0.828,-1.145 -0.472,-1.761c0.356,-0.616 1.144,-0.827 1.76,-0.471Z"
              style="fill:#323232;"/>
        <path d="M67.323,54.118l-0.611,-0.353l-1.238,2.143l0.612,0.354l1.237,-2.144Z" style="fill:#bfbfbf;"/>
        <path d="M64.851,58.401l-0.612,-0.353l-1.237,2.143l0.612,0.353l1.237,-2.143Z" style="fill:#bfbfbf;"/></g>
    <g><rect x="12.598" y="53" width="42.902" height="43.5" style="fill:#f5f5f5;"/>
        <rect x="12.598" y="53" width="42.902" height="1.495" style="fill:#f5f5f5;stroke:#808080;stroke-width:0.5px;"/>
        <rect x="12.598" y="54.495" width="42.902" height="1.495"
              style="fill:#f5f5f5;stroke:#808080;stroke-width:0.5px;"/>
        <rect x="12.598" y="55.989" width="42.902" height="1.495"
              style="fill:#f5f5f5;stroke:#808080;stroke-width:0.5px;"/>
        <rect x="12.598" y="57.484" width="42.902" height="1.495"
              style="fill:#f5f5f5;stroke:#808080;stroke-width:0.5px;"/>
        <rect x="12.598" y="58.978" width="42.902" height="1.495"
              style="fill:#f5f5f5;stroke:#808080;stroke-width:0.5px;"/>
        <rect x="12.598" y="60.473" width="42.902" height="1.495"
              style="fill:#f5f5f5;stroke:#808080;stroke-width:0.5px;"/>
        <rect x="12.598" y="61.967" width="42.902" height="1.495"
              style="fill:#f5f5f5;stroke:#808080;stroke-width:0.5px;"/>
        <rect x="12.598" y="63.462" width="42.902" height="1.495"
              style="fill:#f5f5f5;stroke:#808080;stroke-width:0.5px;"/>
        <rect x="12.598" y="64.956" width="42.902" height="1.495"
              style="fill:#f5f5f5;stroke:#808080;stroke-width:0.5px;"/>
        <rect x="12.598" y="66.451" width="42.902" height="1.495"
              style="fill:#f5f5f5;stroke:#808080;stroke-width:0.5px;"/>
        <rect x="12.598" y="67.945" width="42.902" height="1.495"
              style="fill:#f5f5f5;stroke:#808080;stroke-width:0.5px;"/>
        <rect x="12.598" y="69.44" width="42.902" height="1.495"
              style="fill:#f5f5f5;stroke:#808080;stroke-width:0.5px;"/>
        <rect x="12.598" y="70.935" width="42.902" height="1.495"
              style="fill:#f5f5f5;stroke:#808080;stroke-width:0.5px;"/>
        <rect x="12.598" y="72.429" width="42.902" height="1.495"
              style="fill:#f5f5f5;stroke:#808080;stroke-width:0.5px;"/>
        <rect x="12.598" y="73.924" width="42.902" height="1.495"
              style="fill:#f5f5f5;stroke:#808080;stroke-width:0.5px;"/>
        <rect x="12.598" y="75.418" width="42.902" height="1.495"
              style="fill:#f5f5f5;stroke:#808080;stroke-width:0.5px;"/>
        <rect x="12.598" y="76.913" width="42.902" height="1.495"
              style="fill:#f5f5f5;stroke:#808080;stroke-width:0.5px;"/>
        <rect x="12.598" y="78.407" width="42.902" height="1.495"
              style="fill:#f5f5f5;stroke:#808080;stroke-width:0.5px;"/>
        <rect x="12.598" y="79.902" width="42.902" height="1.495"
              style="fill:#f5f5f5;stroke:#808080;stroke-width:0.5px;"/>
        <rect x="12.598" y="81.396" width="42.902" height="1.495"
              style="fill:#f5f5f5;stroke:#808080;stroke-width:0.5px;"/>
        <rect x="12.598" y="82.891" width="42.902" height="1.495"
              style="fill:#f5f5f5;stroke:#808080;stroke-width:0.5px;"/>
        <rect x="12.598" y="84.385" width="42.902" height="1.495"
              style="fill:#f5f5f5;stroke:#808080;stroke-width:0.5px;"/>
        <rect x="12.598" y="85.88" width="42.902" height="1.495"
              style="fill:#f5f5f5;stroke:#808080;stroke-width:0.5px;"/>
        <rect x="12.598" y="87.375" width="42.902" height="1.495"
              style="fill:#f5f5f5;stroke:#808080;stroke-width:0.5px;"/>
        <rect x="12.598" y="88.869" width="42.902" height="1.495"
              style="fill:#f5f5f5;stroke:#808080;stroke-width:0.5px;"/>
        <rect x="12.598" y="90.364" width="42.902" height="1.495"
              style="fill:#f5f5f5;stroke:#808080;stroke-width:0.5px;"/>
        <rect x="12.598" y="91.858" width="42.902" height="1.495"
              style="fill:#f5f5f5;stroke:#808080;stroke-width:0.5px;"/>
        <rect x="12.598" y="93.353" width="42.902" height="1.495"
              style="fill:#f5f5f5;stroke:#808080;stroke-width:0.5px;"/>
        <rect x="12.598" y="94.847" width="42.902" height="1.495"
              style="fill:#f5f5f5;stroke:#808080;stroke-width:0.5px;"/></g>
    <rect x="18.867" y="48.849" width="2.364" height="5.064" style="fill:none;stroke:#323232;stroke-width:1px;"/>
    <rect x="46.867" y="48.849" width="2.364" height="5.064" style="fill:none;stroke:#323232;stroke-width:1px;"/>
    <path d="M7.648,63.5l0,33l53.168,0l0,-33" style="fill:none;stroke:#323232;stroke-width:1px;"/>
    <rect x="7.648" y="94.5" width="53" height="2" style="fill:#323232;"/>
    <path d="M81,29.5l0,62l-17,-21.5l-64,0l0,-40.5l81,0Zm-7.648,6.5l-65.704,0l0,27.5l65.704,0l0,-27.5Z"
          style="fill:#666;"/>
    <path d="M73.508,35.012c0.709,0.17 0.791,0.316 0.844,0.988l0,27.5c-0.063,0.792 -0.26,0.942 -1,1l-65.704,0c-0.792,-0.062 -0.941,-0.259 -1,-1l0,-27.5c0.063,-0.792 0.26,-0.942 1,-1l65.704,0c0.052,0.004 0.104,0.008 0.156,0.012Zm-64.86,1.988l0,25.5l63.704,0l0,-25.5l-63.704,0Z"
          style="fill:#404040;"/>
    <rect x="47" y="0" width="34" height="29.5" style="fill:#323232;"/></svg>