<svg version="1.2" xmlns="http://www.w3.org/2000/svg" xmlns:xlink="http://www.w3.org/1999/xlink" overflow="visible" preserveAspectRatio="none" viewBox="0 0 26 26" xml:space="preserve" height="24" width="24"><g transform="translate(1, 1)"><rect style="fill:none;" height="24" width="24" y="0" x="0" id="configure_1571994772101" vector-effect="non-scaling-stroke"/><path style="fill:#323232;fill-rule:nonzero;" d="M16.981,5.924c0.111,0.006 0.217,0.046 0.311,0.11l0.005,0.003c0.172,0.142 0.327,0.304 0.481,0.466c0.472,0.5 0.878,1.063 1.212,1.663c0.001,0.002 0.021,0.038 0.022,0.039c0.099,0.198 0.089,0.435 -0.038,0.627l-0.985,1.375c0.006,0.019 0.012,0.038 0.018,0.057c0.006,0.02 0.012,0.04 0.018,0.06c0.025,0.087 0.048,0.174 0.07,0.262l0.009,0.035c0.048,0.209 0.089,0.419 0.12,0.631l1.474,0.806l0.053,0.033c0.013,0.01 0.025,0.019 0.038,0.029c0.12,0.098 0.194,0.248 0.209,0.408c0.004,0.045 0.001,0.047 0.001,0.066c-0.003,0.08 -0.011,0.182 -0.011,0.182c-0.068,0.828 -0.252,1.638 -0.556,2.414c-0.003,0.007 -0.027,0.069 -0.03,0.076c-0.019,0.044 -0.023,0.056 -0.058,0.11c-0.097,0.142 -0.252,0.234 -0.429,0.25l-0.018,0.002l-1.67,0.073c-0.079,0.119 -0.161,0.236 -0.247,0.35c-0.009,0.012 -0.041,0.052 -0.05,0.063c-0.115,0.147 -0.235,0.289 -0.361,0.426c0,0 0.3,1.674 0.3,1.674l0.008,0.063c0.004,0.18 -0.061,0.353 -0.195,0.482l-0.004,0.003c-0.093,0.074 -0.209,0.151 -0.242,0.173c-0.103,0.069 -0.207,0.136 -0.312,0.2c-0.589,0.36 -1.234,0.642 -1.883,0.838c-0.208,0.063 -0.447,0.009 -0.603,-0.156l-0.012,-0.013l-1.098,-1.283c-0.02,0.001 -0.04,0.003 -0.06,0.004c-0.069,0.005 -0.152,0.011 -0.152,0.011c-0.282,0.01 -0.563,0.006 -0.843,-0.015c0,0 -1.1,1.283 -1.1,1.283l-0.043,0.044c-0.135,0.117 -0.31,0.172 -0.491,0.146l-0.005,-0.002c-0.865,-0.211 -1.683,-0.643 -2.403,-1.149c-0.007,-0.004 -0.061,-0.042 -0.066,-0.046c-0.123,-0.093 -0.143,-0.14 -0.176,-0.202c-0.06,-0.115 -0.077,-0.248 -0.058,-0.381l0.3,-1.673c-0.014,-0.014 -0.027,-0.029 -0.041,-0.044c-0.074,-0.082 -0.146,-0.165 -0.216,-0.25l-0.023,-0.028c-0.133,-0.167 -0.259,-0.339 -0.378,-0.516c0,0 -1.671,-0.075 -1.671,-0.075l-0.061,-0.006c-0.168,-0.034 -0.32,-0.132 -0.41,-0.286c0,0 -0.075,-0.169 -0.124,-0.303c-0.278,-0.752 -0.447,-1.541 -0.501,-2.345c-0.001,-0.008 -0.005,-0.074 -0.005,-0.081c-0.004,-0.103 0.008,-0.153 0.024,-0.206c0.022,-0.072 0.058,-0.14 0.105,-0.199c0.047,-0.058 0.107,-0.105 0.172,-0.144l1.473,-0.804c0.004,-0.03 0.009,-0.06 0.013,-0.091c0.051,-0.323 0.126,-0.642 0.222,-0.955c0,0 -0.985,-1.376 -0.985,-1.376l-0.031,-0.05c-0.101,-0.193 -0.098,-0.349 -0.032,-0.522l0.002,-0.006c0.4,-0.807 0.988,-1.523 1.648,-2.137c0.038,-0.036 0.095,-0.083 0.095,-0.083c0.161,-0.11 0.363,-0.14 0.545,-0.071l0.017,0.006l1.537,0.671c0.302,-0.181 0.621,-0.334 0.95,-0.465c0,0 0.444,-1.641 0.444,-1.641l0.019,-0.06c0.071,-0.159 0.196,-0.287 0.365,-0.343c0.042,-0.014 0.044,-0.011 0.063,-0.015c0.078,-0.015 0.163,-0.028 0.178,-0.03c0.8,-0.119 1.622,-0.114 2.43,0.013c0.009,0.001 0.077,0.012 0.085,0.014c0.047,0.009 0.06,0.011 0.119,0.033c0.164,0.068 0.287,0.214 0.34,0.388l0.443,1.64c0.329,0.129 0.645,0.287 0.95,0.465c0,0 1.539,-0.67 1.539,-0.67l0.057,-0.021c0.055,-0.014 0.064,-0.015 0.095,-0.019c0.033,-0.005 0.081,-0.006 0.081,-0.006c0.006,0 0.012,0 0.017,0.001Zm-5.075,-0.756c-0.233,0.005 -0.466,0.02 -0.698,0.046l-0.422,1.565l-0.018,0.056c-0.061,0.138 -0.165,0.252 -0.298,0.32l-0.005,0.003c-0.087,0.034 -0.175,0.064 -0.263,0.095l-0.035,0.014c-0.35,0.14 -0.685,0.316 -1.001,0.523l-0.05,0.029c-0.011,0.005 -0.011,0.005 -0.022,0.01c-0.148,0.061 -0.31,0.066 -0.465,0.006l-1.465,-0.639c-0.363,0.366 -0.683,0.776 -0.961,1.215l-0.027,0.043l0.94,1.312l0.032,0.05c0.07,0.136 0.097,0.291 0.059,0.443c-0.006,0.019 -0.006,0.019 -0.012,0.039c-0.027,0.082 -0.057,0.164 -0.084,0.247c0,0 -0.015,0.049 -0.028,0.091c-0.1,0.342 -0.165,0.694 -0.2,1.049l-0.009,0.058c-0.003,0.011 -0.003,0.011 -0.006,0.023c-0.044,0.155 -0.141,0.286 -0.284,0.374l-1.406,0.766c0.057,0.535 0.18,1.062 0.352,1.57l1.594,0.071l0.057,0.005c0.147,0.028 0.278,0.109 0.373,0.225l0.004,0.005c0.056,0.083 0.107,0.17 0.161,0.254c0,0 0.118,0.177 0.22,0.312c0.157,0.206 0.33,0.398 0.514,0.58l0.039,0.043c0.102,0.136 0.146,0.305 0.124,0.479l-0.287,1.597c0.447,0.287 0.928,0.519 1.426,0.698l1.048,-1.224l0.04,-0.042c0.125,-0.107 0.281,-0.169 0.452,-0.153c0.464,0.045 0.934,0.059 1.398,0l0.059,-0.004c0.012,0 0.012,0 0.024,0.001c0.159,0.01 0.307,0.078 0.42,0.198l1.048,1.224c0.5,-0.175 0.978,-0.414 1.426,-0.699l-0.287,-1.596c-0.025,-0.19 0.031,-0.383 0.17,-0.528c0.046,-0.048 0.093,-0.095 0.14,-0.143c0.021,-0.021 0.04,-0.042 0.04,-0.042c0.255,-0.28 0.483,-0.586 0.679,-0.913l0.031,-0.045c0.109,-0.132 0.258,-0.218 0.432,-0.232l1.594,-0.071c0.171,-0.491 0.284,-1.002 0.347,-1.518l0.006,-0.052l-1.407,-0.766l-0.05,-0.031c-0.118,-0.091 -0.204,-0.22 -0.239,-0.367l-0.002,-0.006c-0.014,-0.1 -0.023,-0.2 -0.035,-0.301c0,0 -0.01,-0.063 -0.018,-0.113c-0.056,-0.346 -0.146,-0.685 -0.264,-1.014l-0.017,-0.057c-0.032,-0.168 0,-0.339 0.093,-0.485l0.94,-1.312c-0.28,-0.456 -0.615,-0.877 -0.987,-1.258l-1.466,0.639l-0.055,0.021c-0.147,0.038 -0.304,0.031 -0.438,-0.04c-0.017,-0.01 -0.017,-0.01 -0.034,-0.021c-0.074,-0.045 -0.145,-0.093 -0.218,-0.138c0,0 -0.044,-0.027 -0.082,-0.048c-0.305,-0.175 -0.628,-0.318 -0.961,-0.432l-0.053,-0.022c-0.048,-0.025 -0.051,-0.028 -0.073,-0.043c-0.109,-0.071 -0.195,-0.179 -0.234,-0.305l-0.009,-0.028l-0.422,-1.565c-0.286,-0.034 -0.574,-0.046 -0.863,-0.046c-0.008,0 -0.015,0 -0.022,0Zm0.11,3.597c0.807,0.012 1.607,0.319 2.205,0.866c0.536,0.491 0.91,1.159 1.046,1.879c0.196,1.045 -0.125,2.176 -0.841,2.952c-0.62,0.673 -1.52,1.07 -2.426,1.07c-1.313,0 -2.586,-0.859 -3.085,-2.117c-0.362,-0.911 -0.31,-1.985 0.148,-2.857c0.552,-1.05 1.679,-1.757 2.851,-1.792c0.023,0 0.046,-0.001 0.069,-0.001c0.017,0 0.017,0 0.033,0Zm-0.045,1.17c-0.619,0.003 -1.26,0.315 -1.664,0.825c-0.703,0.885 -0.627,2.309 0.309,3.097c0.58,0.488 1.421,0.635 2.13,0.372c0.807,-0.299 1.403,-1.112 1.429,-2.015c0.032,-1.106 -0.828,-2.162 -2.007,-2.274c-0.056,-0.003 -0.112,-0.005 -0.169,-0.005c-0.009,0 -0.018,0 -0.028,0Z" id="configure1_1571994772101" vector-effect="non-scaling-stroke"/></g></svg>