<svg version="1.2" xmlns="http://www.w3.org/2000/svg" xmlns:xlink="http://www.w3.org/1999/xlink" overflow="visible" preserveAspectRatio="none" viewBox="0 0 400 63" xml:space="preserve" height="24" width="160"><g transform="translate(1, 1)"><path style="fill: rgb(50, 50, 50); fill-rule: nonzero;" d="M16.465,57.44c-13.334,1.424 -16.461,-10.157 -16.465,-15.384c0,-8.12 6.607,-14.732 14.735,-14.732c0.073,0 0.146,0.003 0.222,0.003c0.587,-10.791 9.549,-19.385 20.479,-19.385c1.026,0 2.072,0.084 3.125,0.25c3.872,-5.154 9.893,-8.192 16.378,-8.192c5.382,0 10.462,2.067 14.31,5.819c3.465,3.38 5.591,7.794 6.084,12.561c8.368,2.746 14.087,10.545 14.087,19.473c0,4.989 -1.67,9.978 -4.578,13.689c-2.124,2.707 -4.627,5.019 -11.7,7.048c-7.072,2.026 -11.018,1.463 -13.813,0.949c-2.799,-0.517 -4.648,-2.194 -4.803,-5.619l-0.234,0c-2.336,2.726 -5.837,5.217 -9.655,5.217c-6.62,0 -11.134,-5.449 -11.134,-12.305c0,-10.823 7.319,-22.114 18.298,-22.114c3.586,0 6.932,1.715 8.721,6.384l1.792,-4.904l4.907,0l-6.543,22.118c-0.386,1.321 -0.855,2.799 -0.855,3.967c0,1.405 0.581,2.248 1.369,2.625c0.785,0.374 2.975,1.819 11.736,-0.818c8.758,-2.634 12.302,-10.27 12.302,-16.238c0,-7.517 -5.098,-14.027 -12.393,-15.831l-1.545,-0.383l-0.045,-1.589c-0.252,-8.893 -7.41,-15.856 -16.305,-15.856c-5.54,0 -10.653,2.783 -13.677,7.451l-0.797,1.228l-1.424,-0.321c-1.22,-0.278 -2.434,-0.417 -3.605,-0.417c-8.998,0 -16.32,7.324 -16.32,16.327c0,0.216 0.016,0.451 0.034,0.701c0.002,0.031 0.004,0.063 0.006,0.095l0.012,0.193c0.002,0.032 0.004,0.063 0.006,0.095l0.14,2.668l-2.622,-0.496c-0.718,-0.135 -1.356,-0.202 -1.956,-0.202c-5.813,0 -10.543,4.732 -10.543,10.542c0.749,13.226 12.269,11.632 12.269,11.632c1.128,0 2.044,0.95 2.044,2.124c0,1.174 -0.916,1.566 -2.044,1.627Zm29.577,-3.598c6.778,0 12.071,-10.197 12.071,-16.585c0,-3.737 -3.036,-7.238 -6.309,-7.238c-7.316,0 -12.46,9.496 -12.46,16.273c0,4.359 2.804,7.55 6.698,7.55Zm74.908,-23.192l-4.59,18.306c-0.958,3.699 -1.917,4.843 -5.804,4.843c-3.699,0 -4.718,-0.636 -6.057,-5.038l-6.828,-22.194c-0.316,-1.022 -0.636,-2.042 -0.636,-3.442c0,-2.424 2.169,-4.339 4.526,-4.339c3.447,0 3.955,1.848 4.59,4.531l4.916,20.407l0.127,0l3.955,-18.559c0.764,-3.635 1.527,-6.504 5.865,-6.379c4.402,-0.125 5.293,2.68 6.124,6.379l4.019,18.559l0.127,0l4.594,-20.407c0.572,-2.683 1.146,-4.531 4.59,-4.531c2.36,0 4.529,1.915 4.529,4.339c0,1.401 -0.319,2.42 -0.639,3.442l-6.826,22.194c-1.338,4.402 -2.361,5.038 -6.06,5.038c-3.888,0 -4.846,-1.144 -5.804,-4.843l-4.587,-18.306l-0.131,0Zm68.114,-19.772c0,-3.062 1.853,-4.657 4.657,-4.657c2.808,0 4.658,1.596 4.658,4.657l0,38.267c0,3.06 -1.85,4.654 -4.658,4.654c-2.805,0 -4.657,-1.594 -4.657,-4.654l0,-38.267Zm17.222,0c0,-3.062 1.853,-4.657 4.657,-4.657c2.804,0 4.657,1.596 4.657,4.657l0,21.175l10.33,-11.483c0.955,-1.019 2.172,-1.784 3.571,-1.784c2.105,0 4.399,1.848 4.399,4.21c0,1.661 -0.572,2.169 -1.402,3.06l-6.888,7.208l9.695,13.012c0.316,0.447 0.958,1.463 0.958,2.996c0,2.361 -1.916,4.527 -4.401,4.527c-2.297,0 -3.511,-1.144 -4.211,-2.166l-8.803,-12.442l-3.249,2.872l0,7.082c0,3.06 -1.853,4.654 -4.657,4.654c-2.804,0 -4.657,-1.594 -4.657,-4.654l0,-38.267l0.001,0Zm-40.946,7.907c11.225,0 17.224,7.654 17.224,17.473c0,9.315 -4.53,17.541 -17.224,17.541c-12.691,0 -17.217,-8.226 -17.217,-17.541c0,-9.819 5.992,-17.473 17.217,-17.473Zm179.076,17.06c0,9.442 -5.485,17.413 -15.56,17.413c-10.082,0 -15.563,-7.97 -15.563,-17.413c0,-9.436 5.481,-17.409 15.563,-17.409c10.075,0 15.56,7.973 15.56,17.409Zm-61.864,-29.08l0,18.879l0.128,0c1.722,-4.72 6.507,-7.208 11.416,-7.208c10.012,0 14.8,8.098 14.8,17.409c0,9.311 -4.788,17.413 -14.8,17.413c-5.293,0 -9.886,-2.744 -11.732,-7.207l-0.131,0l0,6.251l-3.699,0l0,-45.537l4.018,0Zm90.501,39.605c-2.104,4.399 -6.442,6.887 -11.355,6.887c-8.286,0 -11.541,-4.849 -11.541,-12.497l0,-21.37l4.019,0l0,21.431c0.188,5.932 2.424,9.053 8.8,9.053c6.888,0 9.884,-6.501 9.884,-13.202l0,-17.281l4.019,0l0,32.911l-3.701,0l0,-5.932l-0.125,0Zm-127.812,-16.902l0,0.001l0,-0.001l0,0c0.384,-7.716 5.808,-11.032 13.33,-11.032c5.805,0 12.116,1.786 12.116,10.584l0,17.478c0,1.53 0.771,2.421 2.361,2.421c0.447,0 0.958,-0.128 1.277,-0.252l0,3.379c-0.895,0.192 -1.533,0.256 -2.613,0.256c-4.082,0 -4.721,-2.297 -4.721,-5.744l-0.128,0c-2.808,4.277 -5.677,6.699 -11.991,6.699c-6.061,0 -11.034,-2.997 -11.034,-9.628c0,-9.251 8.992,-9.567 17.665,-10.586c3.319,-0.386 5.169,-0.83 5.169,-4.469c0,-5.419 -3.888,-6.758 -8.609,-6.758c-4.977,0 -8.676,2.294 -8.807,7.652l-4.015,0Zm145.414,-10.077l6.695,0l0,3.381l-6.695,0l0,22.193c0,2.622 0.383,4.149 3.252,4.338c1.146,0 2.297,-0.061 3.443,-0.189l0,3.444c-1.211,0 -2.36,0.128 -3.571,0.128c-5.36,0 -7.206,-1.783 -7.14,-7.398l0,-22.516l-5.743,0l0,-3.381l5.743,0l0,-9.883l4.016,0l0,9.883Zm-96.56,2.426c-8.545,0 -11.544,7.204 -11.544,14.028c0,6.826 2.999,14.03 11.544,14.03c7.654,0 10.781,-7.204 10.781,-14.03c0,-6.825 -3.127,-14.028 -10.781,-14.028Zm23.217,14.028c0,7.015 3.824,14.03 11.545,14.03c7.714,0 11.544,-7.015 11.544,-14.03c0,-7.012 -3.83,-14.028 -11.544,-14.028c-7.721,0 -11.545,7.016 -11.545,14.028Zm-50.641,-1.527l-0.127,0c-0.512,0.958 -2.297,1.274 -3.38,1.466c-6.823,1.21 -15.308,1.144 -15.308,7.589c0,4.019 3.574,6.501 7.331,6.501c6.127,0 11.548,-3.888 11.484,-10.328l0,-5.228l0.001,0l-0.001,0Zm-101.331,12.594c5.549,0 7.909,-4.974 7.909,-10.653c0,-6.055 -2.485,-10.584 -7.909,-10.584c-5.421,0 -7.906,4.53 -7.906,10.584c0,5.679 2.357,10.653 7.906,10.653Z" id="path3082_1571920628631" vector-effect="non-scaling-stroke"/></g></svg>